<svg width="41" height="37" viewBox="0 0 41 37" fill="none" xmlns="http://www.w3.org/2000/svg">
<path fill-rule="evenodd" clip-rule="evenodd" d="M8.02367 12.1206C8.02367 5.8137 13.5683 0.662842 20.4595 0.662842C27.3506 0.662842 32.8953 5.8137 32.8953 12.1206C32.8953 15.1403 31.9476 18.3737 30.2757 21.1655C28.6065 23.9528 26.1558 26.3961 23.066 27.7059C21.412 28.4069 19.507 28.4069 17.8529 27.7059C14.7631 26.3961 12.3124 23.9528 10.6433 21.1655C8.97146 18.3737 8.02367 15.1403 8.02367 12.1206ZM20.4595 3.1691C15.1406 3.1691 10.7872 7.15573 10.7872 12.1206C10.7872 14.6925 11.6034 17.5174 13.0718 19.9694C14.5428 22.4258 16.6085 24.4118 19.0232 25.4354C19.9355 25.8222 20.9834 25.8222 21.8958 25.4354C24.3105 24.4118 26.3762 22.4258 27.8473 19.9694C29.3154 17.5174 30.1318 14.6925 30.1318 12.1206C30.1318 7.15573 25.7783 3.1691 20.4595 3.1691ZM20.4595 9.85245C19.1875 9.85245 18.1566 10.7875 18.1566 11.941C18.1566 13.0945 19.1875 14.0295 20.4595 14.0295C21.7314 14.0295 22.7624 13.0945 22.7624 11.941C22.7624 10.7875 21.7314 9.85245 20.4595 9.85245ZM15.393 11.941C15.393 9.40336 17.6613 7.34619 20.4595 7.34619C23.2576 7.34619 25.5259 9.40336 25.5259 11.941C25.5259 14.4786 23.2576 16.5358 20.4595 16.5358C17.6613 16.5358 15.393 14.4786 15.393 11.941ZM5.03412 22.8586C5.50804 23.4011 5.40734 24.1892 4.8092 24.619C3.75232 25.3785 3.41781 26.0479 3.41781 26.5608C3.41781 26.9668 3.62098 27.4597 4.22962 28.0305C4.84448 28.6071 5.80516 29.1927 7.11274 29.7306C9.4235 30.681 12.6176 31.4006 16.3142 31.7142V30.9468C16.3142 30.4551 16.6313 30.0088 17.125 29.8056C17.6188 29.6024 18.1978 29.68 18.6059 30.0038L21.3694 32.1967C21.6692 32.4347 21.8412 32.7784 21.8412 33.1398C21.8412 33.5012 21.6692 33.8449 21.3694 34.0828L18.6059 36.2758C18.1978 36.5996 17.6188 36.6771 17.125 36.4739C16.6313 36.2707 16.3142 35.8245 16.3142 35.3327V34.2307C12.2889 33.9104 8.68557 33.1294 5.97128 32.0129C4.47189 31.3962 3.17958 30.6509 2.24321 29.7729C1.30061 28.889 0.654297 27.8039 0.654297 26.5608C0.654297 24.9732 1.6983 23.6569 3.09301 22.6547C3.69114 22.2248 4.56021 22.3162 5.03412 22.8586ZM35.8849 22.8586C36.3587 22.3162 37.2277 22.2248 37.826 22.6547C39.2206 23.6569 40.2647 24.9732 40.2647 26.5608C40.2647 28.8634 38.1126 30.5886 35.573 31.7428C32.9168 32.9498 29.2861 33.8041 25.2046 34.1792C24.4454 34.249 23.7676 33.7474 23.6906 33.0589C23.6138 32.3703 24.1668 31.7555 24.9261 31.6858C28.7906 31.3306 32.0688 30.5317 34.3349 29.502C36.7174 28.4193 37.5011 27.3237 37.5011 26.5608C37.5011 26.0479 37.1666 25.3785 36.1098 24.619C35.5116 24.1892 35.411 23.4011 35.8849 22.8586Z" fill="#FFC973"/>
</svg>
