<svg width="39" height="51" viewBox="0 0 39 51" fill="none" xmlns="http://www.w3.org/2000/svg">
<path fill-rule="evenodd" clip-rule="evenodd" d="M35.1472 8.4205C33.7327 5.95268 31.6472 3.93671 29.1329 2.60666C24.3791 0.611544 19.1156 0.172921 14.0971 1.35368C11.4704 1.83598 8.989 2.91335 6.84316 4.50319C4.69731 6.09302 2.94401 8.15311 1.71765 10.5255C-0.0830394 15.174 -0.432532 20.2591 0.715263 25.1102C1.69782 29.8167 3.73725 34.2384 6.67946 38.041C8.18688 39.959 9.86432 41.7371 11.6914 43.3536C14.3978 45.7594 17.3047 47.9145 20.2117 50.1699C20.3565 50.2883 20.5232 50.3771 20.7023 50.4312C20.8814 50.4852 21.0694 50.5034 21.2556 50.4848C21.4417 50.4662 21.6224 50.4111 21.7873 50.3227C21.9521 50.2342 22.098 50.1142 22.2164 49.9694C22.3349 49.8246 22.4237 49.6579 22.4777 49.4787C22.5318 49.2996 22.55 49.1116 22.5314 48.9255C22.5128 48.7393 22.4577 48.5586 22.3692 48.3938C22.2808 48.2289 22.1608 48.0831 22.016 47.9646C19.3095 45.609 16.5028 43.3536 13.9969 40.8978C12.3423 39.3544 10.817 37.6782 9.43602 35.8859C7.102 32.4643 5.57667 28.5567 4.9754 24.4587C4.24847 20.5767 4.68436 16.5664 6.22838 12.9312C7.14288 11.2383 8.44704 9.78722 10.0331 8.69788C11.6192 7.60853 13.4417 6.91218 15.3501 6.66633C19.1802 5.7026 23.2177 5.98347 26.8775 7.46824C28.9675 8.57659 30.6391 10.3362 31.6389 12.4802C32.7924 14.7418 33.4744 17.2143 33.6436 19.7475C33.8431 23.7344 33.2468 27.7212 31.8894 31.4754C29.7833 37.3537 27.0085 42.9705 23.6198 48.2152C23.3872 48.5741 23.3066 49.0107 23.3959 49.429C23.4852 49.8472 23.737 50.2129 24.0959 50.4455C24.4548 50.6781 24.8914 50.7586 25.3097 50.6694C25.7279 50.5801 26.0936 50.3283 26.3262 49.9694C30.1253 44.6432 33.2877 38.8904 35.7486 32.8286C37.5744 28.6333 38.5619 24.1214 38.6556 19.547C38.4462 15.6011 37.239 11.7728 35.1472 8.4205Z" fill="#0397B5"/>
<path fill-rule="evenodd" clip-rule="evenodd" d="M27.3787 17.8928C27.2647 16.7377 26.9013 15.6212 26.3136 14.6203C25.7259 13.6194 24.928 12.758 23.9749 12.0956C23.0218 11.4332 21.9363 10.9856 20.7933 10.7837C19.6503 10.5818 18.4772 10.6304 17.3548 10.9262C15.3494 11.1982 13.5163 12.2049 12.2107 13.7512C10.9051 15.2976 10.22 17.2735 10.288 19.2961C11.0899 28.1672 28.6317 30.7734 27.3787 17.8928ZM14.6985 19.246C14.8216 18.4006 15.2533 17.6308 15.9104 17.0848C16.5674 16.5388 17.4033 16.2553 18.257 16.289C20.813 15.7377 22.4169 16.8904 22.7677 18.6446C24.6221 27.3152 14.3978 24.1076 14.6985 19.246Z" fill="#0397B5"/>
</svg>
