<svg width="50" height="52" viewBox="0 0 50 52" fill="none" xmlns="http://www.w3.org/2000/svg">
<path fill-rule="evenodd" clip-rule="evenodd" d="M4.1513 21.1719C6.7343 21.1719 12.5513 21.6549 20.3633 21.8019C23.9753 21.8019 27.8603 21.9069 31.7663 21.8019C37.7933 21.8019 43.8203 21.3399 48.8813 21.0039C48.9723 21.0012 49.0619 20.9805 49.145 20.9432C49.228 20.9058 49.3029 20.8525 49.3653 20.7862C49.4277 20.7198 49.4764 20.6419 49.5087 20.5567C49.5409 20.4716 49.5561 20.3809 49.5533 20.2899C49.5506 20.1989 49.53 20.1093 49.4926 20.0262C49.4552 19.9432 49.4019 19.8683 49.3356 19.8059C49.2693 19.7435 49.1913 19.6948 49.1061 19.6625C49.021 19.6303 48.9303 19.6151 48.8393 19.6179C43.7783 19.6179 37.7723 19.3659 31.7663 19.2399H27.2513C27.3983 17.8119 27.6083 15.5019 27.6293 13.3389C27.6293 11.6379 27.5243 10.0629 27.5033 9.13889L26.9783 5.12789C28.5533 7.01789 30.7163 9.70589 31.1783 10.2729C31.2802 10.455 31.4494 10.59 31.6495 10.6488C31.8497 10.7077 32.065 10.6858 32.2493 10.5879C32.3562 10.5279 32.4483 10.4447 32.5188 10.3444C32.5893 10.244 32.6363 10.1292 32.6565 10.0082C32.6766 9.88732 32.6694 9.7634 32.6352 9.64565C32.6011 9.52789 32.541 9.4193 32.4593 9.32789C31.1031 6.83897 29.6098 4.42726 27.9863 2.10389C27.7823 1.79049 27.5348 1.50767 27.2513 1.26389C27.0882 1.10383 26.8864 0.988748 26.6656 0.929864C26.4448 0.87098 26.2125 0.870299 25.9913 0.927887C25.2585 1.30672 24.6199 1.8449 24.1223 2.50289C22.7153 4.24589 20.6573 7.37489 20.1533 8.06789C20.0336 8.20991 19.9751 8.39369 19.9909 8.57878C20.0066 8.76388 20.0953 8.93514 20.2373 9.05489C20.3793 9.17463 20.5631 9.23306 20.7482 9.2173C20.9333 9.20155 21.1046 9.11291 21.2243 8.97089L25.2773 5.12789L24.8783 9.18089V13.5069C25.1513 15.6279 25.3613 17.7279 25.4453 19.1979H19.0403C13.8113 19.1979 9.2753 19.3659 6.2093 19.4079C0.791299 19.5129 0.476298 19.8279 0.455298 20.2689C0.434298 20.7099 1.2323 20.9199 3.1013 21.0879C3.44863 21.1427 3.79966 21.1708 4.1513 21.1719Z" fill="#FFC973"/>
<path fill-rule="evenodd" clip-rule="evenodd" d="M47.4314 28.2278H44.1764C41.1314 28.2278 36.5744 28.0598 31.3664 27.9968H18.6194C12.5504 28.0388 6.52342 28.2278 1.48342 28.2278C1.31768 28.2565 1.16742 28.3428 1.05911 28.4715C0.950806 28.6002 0.891418 28.7631 0.891418 28.9313C0.891418 29.0995 0.950806 29.2623 1.05911 29.391C1.16742 29.5197 1.31768 29.606 1.48342 29.6348C6.52342 29.9498 12.5504 30.3068 18.5984 30.4328H30.0014C37.8974 30.2858 44.5124 29.8868 47.0954 29.7818C47.4728 29.8126 47.852 29.8126 48.2294 29.7818C49.8674 29.6348 49.6574 29.4248 49.8464 29.1098C50.0354 28.7948 49.3844 28.1018 47.4314 28.2278Z" fill="#FFC973"/>
<path fill-rule="evenodd" clip-rule="evenodd" d="M32.1232 41.7729C31.939 41.6749 31.7237 41.653 31.5235 41.7119C31.3233 41.7708 31.1541 41.9057 31.0522 42.0879C30.6952 42.6549 28.5112 45.3849 26.8522 47.2749L27.3982 42.9279C27.3982 42.0039 27.5242 40.4499 27.3982 38.7279C27.3633 36.6215 27.2161 34.5185 26.9572 32.4279C26.9601 32.3168 26.9404 32.2062 26.8992 32.103C26.858 31.9998 26.7962 31.906 26.7176 31.8275C26.6391 31.7489 26.5453 31.6871 26.4421 31.6459C26.3389 31.6047 26.2283 31.585 26.1172 31.5879C25.8923 31.6143 25.6867 31.7282 25.5452 31.9051C25.4037 32.082 25.3376 32.3076 25.3612 32.5329C25.3612 33.8139 24.9412 36.3549 24.8152 38.7069C24.7102 40.4289 24.8152 42.0249 24.8152 42.9069L25.2562 47.1069C23.6812 45.5949 21.6862 43.5999 21.0562 43.0959C20.9983 43.0227 20.9261 42.962 20.8441 42.9174C20.7621 42.8729 20.6719 42.8453 20.579 42.8364C20.4861 42.8276 20.3923 42.8376 20.3033 42.8658C20.2144 42.8941 20.132 42.94 20.0613 43.0009C19.9905 43.0617 19.9327 43.1363 19.8915 43.22C19.8502 43.3037 19.8263 43.3949 19.8212 43.4881C19.816 43.5814 19.8298 43.6746 19.8616 43.7624C19.8934 43.8502 19.9426 43.9306 20.0062 43.9989C20.4892 44.7129 22.5472 47.8209 23.9752 49.5639C24.4722 50.2143 25.1022 50.7513 25.8232 51.1389C26.038 51.1961 26.2635 51.1992 26.4798 51.1479C26.696 51.0966 26.8961 50.9925 27.0622 50.8449C27.3552 50.5983 27.6162 50.3161 27.8392 50.0049C29.1622 48.2199 32.0392 43.4949 32.3122 42.7179C32.3881 42.5613 32.4106 42.3842 32.3765 42.2136C32.3424 42.043 32.2534 41.8882 32.1232 41.7729Z" fill="#FFC973"/>
</svg>
