<svg width="71" height="69" viewBox="0 0 71 69" fill="none" xmlns="http://www.w3.org/2000/svg">
<path fill-rule="evenodd" clip-rule="evenodd" d="M51.6654 20.9095C51.77 20.9095 51.8747 20.931 51.9732 20.9772C52.1824 21.0695 52.3394 21.2511 52.3979 21.4727L56.2849 35.9742L58.2454 34.8417V17.6567C58.2269 17.3828 58.3562 17.1088 58.6085 16.958C60.5228 15.8008 62.1878 14.7052 63.4219 13.782C64.773 12.7756 66.8689 10.6797 68.697 7.82371C68.8755 7.54673 68.8847 7.23281 68.7185 6.94658C68.5523 6.66036 68.2815 6.50956 67.9491 6.52494C64.5637 6.6819 61.7015 7.44825 60.1505 8.11605C58.7378 8.72234 56.9528 9.61481 54.9954 10.6951C54.7338 10.8397 54.423 10.812 54.1922 10.652L39.3243 2.06813L37.3638 3.20069L47.9788 13.8157C48.1388 13.9788 48.2219 14.2034 48.1942 14.4312C48.1696 14.6589 48.0465 14.8621 47.8526 14.9882C44.7165 17.0287 41.7836 19.143 39.3767 21.1096C39.1336 21.3066 38.792 21.3343 38.5181 21.1773L32.766 17.8566L31.0795 18.8322L35.6282 23.3778C35.7698 23.5225 35.8498 23.7133 35.8498 23.9164C35.8498 24.1164 35.7698 24.3103 35.6251 24.455C34.4679 25.606 33.5447 26.6709 32.8676 27.6403C34.0463 27.5419 35.4312 27.2741 37.007 26.8463C37.2039 26.794 37.4101 26.8217 37.5856 26.9202C37.761 27.0217 37.8872 27.1879 37.9395 27.3818L39.6045 33.5924L41.291 32.6168V25.9753C41.291 25.6614 41.4849 25.3783 41.7803 25.2675C44.6887 24.1626 47.9848 22.6823 51.3175 20.9865C51.4252 20.9311 51.5452 20.9034 51.6622 20.9034L51.6654 20.9095ZM55.8079 37.8857C55.7094 37.8857 55.6109 37.8673 55.5155 37.8273C55.297 37.738 55.1339 37.5503 55.0723 37.3225L51.173 22.7682C48.2616 24.2209 45.3963 25.5012 42.8113 26.5045V33.0628C42.8113 33.3337 42.6667 33.586 42.4328 33.7184L39.5091 35.408C39.306 35.5249 39.0567 35.5403 38.8412 35.451C38.6227 35.3618 38.4596 35.1741 38.3981 34.9463L36.6715 28.5079C34.6187 29.0219 32.8676 29.2527 31.4611 29.2004C31.1995 29.1912 30.9625 29.0496 30.8302 28.8218C30.7009 28.5941 30.6948 28.3171 30.8179 28.0863C31.4734 26.843 32.5506 25.4457 34.0217 23.9222L29.3067 19.2104C29.1406 19.0442 29.0605 18.8072 29.0913 18.5733C29.1221 18.3394 29.2606 18.1332 29.4637 18.0163L32.3874 16.3267C32.6244 16.1913 32.9137 16.1913 33.1476 16.3267L38.8258 19.6044C40.9893 17.8656 43.5284 16.0251 46.2428 14.2309L35.5885 3.57652C35.4223 3.41032 35.3423 3.17335 35.373 2.93945C35.4038 2.70555 35.5423 2.49936 35.7454 2.3824L38.9431 0.535794C39.1801 0.400375 39.4694 0.400375 39.7033 0.535794L54.6389 9.15903C56.4917 8.14961 58.1812 7.30935 59.5477 6.72152C61.7144 5.78899 64.8258 5.14885 67.8755 5.00727C68.7742 4.96726 69.5805 5.40736 70.0299 6.186C70.4823 6.96464 70.4577 7.88481 69.9745 8.64195C68.331 11.2117 66.2167 13.5876 64.3301 14.9972C63.1391 15.8836 61.5664 16.9299 59.766 18.0287V35.276C59.766 35.5468 59.6213 35.7992 59.3874 35.9315L56.1898 37.7781C56.0728 37.8458 55.9405 37.8797 55.8112 37.8797L55.8079 37.8857Z" fill="white"/>
<path fill-rule="evenodd" clip-rule="evenodd" d="M52.3517 9.47321C52.0901 9.47321 51.8346 9.33779 51.693 9.09466C51.4838 8.7315 51.6069 8.26676 51.97 8.05751L54.9584 6.33097C54.9677 6.32789 54.9677 6.3125 54.9646 6.30635L54.2721 5.10611C54.266 5.09687 54.2536 5.0938 54.2475 5.09995L49.7911 7.67282C49.428 7.88209 48.9632 7.75592 48.754 7.39584C48.5447 7.03267 48.6709 6.56794 49.031 6.35868L53.4873 3.78582C53.8412 3.5827 54.2567 3.52729 54.6507 3.63501C55.0477 3.73965 55.3801 3.99509 55.5832 4.34902L56.2757 5.54926C56.7004 6.28173 56.4449 7.22348 55.7125 7.64822L52.7241 9.37169C52.6041 9.44247 52.4748 9.47325 52.3455 9.47325L52.3517 9.47321Z" fill="white"/>
<path fill-rule="evenodd" clip-rule="evenodd" d="M47.132 6.46039C46.8704 6.46039 46.615 6.32497 46.4734 6.08184C46.2642 5.71868 46.3873 5.25395 46.7504 5.04469L49.708 3.33659C49.7172 3.33044 49.7203 3.31813 49.7142 3.31197L49.0217 2.11173C49.0155 2.1025 49.0032 2.09942 48.9971 2.10557L44.5684 4.66308C44.2052 4.87235 43.7405 4.74925 43.5312 4.38609C43.3219 4.02293 43.445 3.5582 43.8082 3.34894L48.2369 0.791438C48.9724 0.369802 49.9111 0.619092 50.3359 1.35464L51.0283 2.55488C51.2315 2.90881 51.2868 3.32121 51.1791 3.72132C51.0745 4.11834 50.8191 4.44764 50.4651 4.65384L47.5075 6.36195C47.3875 6.43273 47.2552 6.46351 47.129 6.46351L47.132 6.46039Z" fill="white"/>
<path fill-rule="evenodd" clip-rule="evenodd" d="M59.0052 24.3935C58.7436 24.3935 58.4882 24.2581 58.3466 24.015C58.1373 23.6518 58.2604 23.1871 58.6236 22.9778L63.0799 20.405C63.0861 20.4019 63.0922 20.3865 63.0861 20.3803L62.3936 19.1801C62.3875 19.1739 62.3752 19.1709 62.369 19.1739L59.3837 20.8974C59.0205 21.1067 58.5558 20.9836 58.3465 20.6204C58.1373 20.2573 58.2604 19.7925 58.6235 19.5833L61.6088 17.8598C61.9658 17.6536 62.3782 17.6013 62.7753 17.7059C63.1723 17.8106 63.5047 18.066 63.7078 18.4199L64.4003 19.6202C64.8219 20.3527 64.5695 21.2944 63.8371 21.7191L59.3807 24.292C59.2607 24.3628 59.1284 24.3936 59.0022 24.3936L59.0052 24.3935Z" fill="white"/>
<path fill-rule="evenodd" clip-rule="evenodd" d="M59.0052 30.4157C58.7436 30.4157 58.4882 30.2803 58.3466 30.0371C58.1373 29.674 58.2604 29.2092 58.6236 29L63.0523 26.4425C63.0584 26.4394 63.0615 26.4271 63.0584 26.4179L62.3659 25.2176C62.3629 25.2115 62.3475 25.2084 62.3413 25.2115L59.3837 26.9196C59.0206 27.1288 58.5558 27.0057 58.3466 26.6426C58.1373 26.2794 58.2604 25.8147 58.6236 25.6054L61.5812 23.8973C61.9351 23.6911 62.3506 23.6388 62.7476 23.7434C63.1446 23.8512 63.4739 24.1035 63.6801 24.4574L64.3726 25.6577C64.5788 26.0116 64.6311 26.4271 64.5265 26.8241C64.4187 27.2211 64.1664 27.5505 63.8125 27.7567L59.3838 30.3142C59.2637 30.3849 59.1314 30.4157 59.0052 30.4157Z" fill="white"/>
<path fill-rule="evenodd" clip-rule="evenodd" d="M63.6284 15.3334C63.2191 15.3334 62.8837 15.0102 62.8683 14.5978C62.8283 13.3175 62.4651 12.0465 61.8188 10.9324C61.1725 9.81522 60.2585 8.86733 59.169 8.19024C58.812 7.96865 58.7043 7.50085 58.9228 7.14387C59.1444 6.78687 59.6122 6.67915 59.9692 6.90074C61.2679 7.70705 62.3636 8.83961 63.1329 10.1722C63.9023 11.5048 64.3362 13.019 64.3855 14.5486C64.3978 14.9671 64.0685 15.318 63.653 15.3303C63.6438 15.3303 63.6346 15.3334 63.6284 15.3334Z" fill="white"/>
<path fill-rule="evenodd" clip-rule="evenodd" d="M9.85868 66.5931H16.3155V24.476H9.85868V66.5931ZM17.0757 68.1104H9.09854C8.67999 68.1104 8.33837 67.7718 8.33837 67.3502V23.7156C8.33837 23.294 8.67691 22.9555 9.09854 22.9555H17.0757C17.4943 22.9555 17.8359 23.294 17.8359 23.7156V67.3502C17.8359 67.7688 17.4943 68.1104 17.0757 68.1104Z" fill="white"/>
<path fill-rule="evenodd" clip-rule="evenodd" d="M63.0557 68.1111H17.0732C16.6547 68.1111 16.3131 67.7726 16.3131 67.3509C16.3131 66.9324 16.6516 66.5908 17.0732 66.5908H62.2954V49.3191H17.0732C16.6547 49.3191 16.3131 48.9775 16.3131 48.5589C16.3131 48.1404 16.6516 47.7987 17.0732 47.7987H63.0557C63.4742 47.7987 63.8158 48.1373 63.8158 48.5589V67.348C63.8158 67.7666 63.4742 68.1082 63.0557 68.1082V68.1111Z" fill="white"/>
<path fill-rule="evenodd" clip-rule="evenodd" d="M69.5957 49.3222H63.0558C62.6372 49.3222 62.2956 48.9805 62.2956 48.562C62.2956 48.1434 62.6342 47.8018 63.0558 47.8018H68.8355V43.6163H17.0733C16.6547 43.6163 16.3131 43.2746 16.3131 42.8561C16.3131 42.4375 16.6516 42.0959 17.0733 42.0959H69.5958C70.0144 42.0959 70.356 42.4345 70.356 42.8561V48.5589C70.356 48.9775 70.0144 49.3191 69.5958 49.3191L69.5957 49.3222Z" fill="white"/>
<path fill-rule="evenodd" clip-rule="evenodd" d="M8.06786 22.9593H18.1037V19.7832H8.06786V22.9593ZM18.8609 24.4765H7.30756C6.88901 24.4765 6.54739 24.138 6.54739 23.7195V19.0261C6.54739 18.6076 6.88593 18.2659 7.30756 18.2659H18.8609C19.2794 18.2659 19.6211 18.6076 19.6211 19.0261V23.7195C19.6211 24.138 19.2825 24.4765 18.8609 24.4765Z" fill="white"/>
<path fill-rule="evenodd" clip-rule="evenodd" d="M18.864 19.7826C18.7625 19.7826 18.6578 19.7611 18.5594 19.718C18.1747 19.5518 17.9992 19.1024 18.1685 18.7178L23.4528 6.64445H2.72469L8.00586 18.7178C8.17512 19.1025 7.9997 19.5487 7.615 19.718C7.2303 19.8872 6.78404 19.7087 6.6148 19.3271L0.865794 6.1886C0.76423 5.9547 0.785778 5.68388 0.927346 5.46844C1.06892 5.25301 1.30589 5.12375 1.56441 5.12375H24.6159C24.8713 5.12375 25.1114 5.25301 25.253 5.46844C25.3915 5.68388 25.413 5.95471 25.3145 6.1886L19.5655 19.3271C19.4393 19.6133 19.1623 19.7826 18.87 19.7826H18.864Z" fill="white"/>
<path fill-rule="evenodd" clip-rule="evenodd" d="M18.864 6.6448C18.4455 6.6448 18.1039 6.30626 18.1039 5.88463V2.12996C18.1039 2.03147 18.0208 1.94838 17.9254 1.94838H8.24638C8.15097 1.94838 8.06787 2.03147 8.06787 2.12996V5.88463C8.06787 6.30319 7.72626 6.6448 7.30771 6.6448C6.88915 6.6448 6.54754 6.30626 6.54754 5.88463V2.12996C6.54754 1.19436 7.30771 0.431152 8.24327 0.431152H17.9223C18.8578 0.431152 19.618 1.1944 19.618 2.12996V5.88463C19.618 6.30319 19.2794 6.6448 18.8578 6.6448H18.864Z" fill="white"/>
<path fill-rule="evenodd" clip-rule="evenodd" d="M22.6954 11.0243H3.47535C3.0568 11.0243 2.71518 10.6858 2.71518 10.2641C2.71518 9.84558 3.05372 9.50397 3.47535 9.50397H22.6954C23.114 9.50397 23.4556 9.84558 23.4556 10.2641C23.4556 10.6827 23.1171 11.0243 22.6954 11.0243Z" fill="white"/>
<path fill-rule="evenodd" clip-rule="evenodd" d="M20.7785 15.4038H5.39381C4.97526 15.4038 4.63365 15.0652 4.63365 14.6436C4.63365 14.225 4.97526 13.8834 5.39381 13.8834H20.7785C21.1971 13.8834 21.5387 14.225 21.5387 14.6436C21.5387 15.0621 21.1971 15.4038 20.7785 15.4038Z" fill="white"/>
<path fill-rule="evenodd" clip-rule="evenodd" d="M31.8544 68.1112C31.4359 68.1112 31.0943 67.7726 31.0943 67.351V56.2869H23.9327V67.351C23.9327 67.7695 23.5911 68.1112 23.1725 68.1112C22.754 68.1112 22.4124 67.7726 22.4124 67.351V55.5266C22.4124 55.1081 22.7509 54.7665 23.1725 54.7665H31.8549C32.2734 54.7665 32.615 55.1081 32.615 55.5266V67.351C32.615 67.7695 32.273 68.1112 31.8544 68.1112Z" fill="white"/>
<path fill-rule="evenodd" clip-rule="evenodd" d="M44.4052 68.1112C43.9866 68.1112 43.645 67.7726 43.645 67.351V56.2869H36.4835V67.351C36.4835 67.7695 36.1418 68.1112 35.7233 68.1112C35.3047 68.1112 34.9631 67.7726 34.9631 67.351V55.5266C34.9631 55.1081 35.3017 54.7665 35.7233 54.7665H44.4025C44.821 54.7665 45.1626 55.1081 45.1626 55.5266V67.351C45.1626 67.7695 44.821 68.1112 44.4025 68.1112H44.4052Z" fill="white"/>
<path fill-rule="evenodd" clip-rule="evenodd" d="M56.956 68.1112C56.5374 68.1112 56.1958 67.7726 56.1958 67.351V56.2869H49.0342V67.351C49.0342 67.7695 48.6957 68.1112 48.274 68.1112C47.8555 68.1112 47.5139 67.7726 47.5139 67.351V55.5266C47.5139 55.1081 47.8524 54.7665 48.274 54.7665H56.9564C57.3749 54.7665 57.7165 55.1081 57.7165 55.5266V67.351C57.7165 67.7695 57.3745 68.1112 56.956 68.1112Z" fill="white"/>
<path fill-rule="evenodd" clip-rule="evenodd" d="M30.8917 43.6191C30.47 43.6191 30.1315 43.2775 30.1315 42.8589V32.0076H23.4377V42.8589C23.4377 43.2775 23.0961 43.6191 22.6775 43.6191C22.259 43.6191 21.9173 43.2775 21.9173 42.8589V31.2473C21.9173 30.8288 22.2559 30.4872 22.6775 30.4872H30.8887C31.3072 30.4872 31.6458 30.8257 31.6458 31.2473V42.8589C31.6458 43.2775 31.3072 43.6191 30.8887 43.6191H30.8917Z" fill="white"/>
</svg>
