<svg width="47" height="49" viewBox="0 0 47 49" fill="none" xmlns="http://www.w3.org/2000/svg">
<path d="M46.2414 46.5812H0.0292969V48.4233H46.2414V46.5812Z" fill="#FFC973"/>
<path d="M43.2852 28.2472H41.5307V44.8267H43.2852V28.2472Z" fill="#FFC973"/>
<path d="M39.7763 28.2472H38.0218V44.8267H39.7763V28.2472Z" fill="#FFC973"/>
<path d="M36.2674 28.2472H34.5129V44.8267H36.2674V28.2472Z" fill="#FFC973"/>
<path d="M4.68735 28.2472H2.98554V44.8267H4.68735V28.2472Z" fill="#FFC973"/>
<path d="M8.19624 28.2472H6.4418V44.8267H8.19624V28.2472Z" fill="#FFC973"/>
<path d="M11.7051 28.2472H9.95069V44.8267H11.7051V28.2472Z" fill="#FFC973"/>
<path d="M15.214 28.2472H13.4596V44.8267H15.214V28.2472Z" fill="#FFC973"/>
<path d="M18.7229 28.2472H16.9685V44.8267H18.7229V28.2472Z" fill="#FFC973"/>
<path d="M22.2318 28.2472H20.4774V44.8267H22.2318V28.2472Z" fill="#FFC973"/>
<path d="M25.7407 28.2472H23.9863V44.8267H25.7407V28.2472Z" fill="#FFC973"/>
<path d="M29.2496 28.2472H27.4951V44.8267H29.2496V28.2472Z" fill="#FFC973"/>
<path d="M32.7585 28.2472H31.004V44.8267H32.7585V28.2472Z" fill="#FFC973"/>
<path d="M46.2414 24.6506H0.0292969V26.4928H46.2414V24.6506Z" fill="#FFC973"/>
<path d="M24.1091 4.52709H24.0126V22.8961H31.1795V11.6238C31.1795 5.7552 27.3372 4.52709 24.1091 4.52709ZM29.2847 19.2469L26.9425 21.9487C26.767 22.1496 26.5223 22.2558 26.2758 22.2558C26.074 22.2558 25.8723 22.1856 25.7056 22.0452C25.3372 21.7303 25.3021 21.168 25.6179 20.8084L27.9513 18.0977C28.2759 17.7293 28.8285 17.6942 29.1882 18.01C29.5566 18.3258 29.6005 18.8785 29.2847 19.2469ZM29.425 15.3783L27.0916 18.0802C26.9162 18.2811 26.6714 18.3784 26.4249 18.3784C26.2232 18.3784 26.0214 18.3083 25.8547 18.1679C25.4863 17.853 25.4424 17.2995 25.7591 16.931L28.1013 14.2292C28.4162 13.8607 28.9698 13.8169 29.3382 14.1415C29.7057 14.4573 29.7408 15.0099 29.425 15.3783Z" fill="#FFC973"/>
<path d="M22.1616 4.52709C18.9334 4.52709 15.0912 5.7552 15.0912 11.6238V22.8961H22.2581V4.52709H22.1616ZM20.3633 12.2291L18.0211 14.931C17.8545 15.1318 17.6088 15.238 17.3632 15.238C17.1527 15.238 16.9509 15.1678 16.7843 15.0275C16.4158 14.7125 16.3807 14.1502 16.6965 13.7906L19.0387 11.0799C19.3545 10.7115 19.9072 10.6764 20.2756 10.9922C20.6353 11.308 20.6791 11.8607 20.3633 12.2291ZM20.5124 8.36056L18.1703 11.0624C17.9948 11.2633 17.7492 11.3607 17.5036 11.3607C17.3018 11.3607 17.1001 11.2905 16.9334 11.1501C16.5649 10.8352 16.5299 10.2817 16.8457 9.91324L19.1791 7.21139C19.4949 6.84296 20.0563 6.7991 20.416 7.11578C20.7844 7.43947 20.8282 7.99212 20.5124 8.36056Z" fill="#FFC973"/>
<path d="M34.2585 9.55358V22.8961H32.9339V11.6238C32.9339 6.00083 29.7145 2.77265 24.1091 2.77265H22.1616C16.5562 2.77265 13.3368 6.00083 13.3368 11.6238V22.8961H12.0122V9.55358C12.0122 4.46569 16.1527 0.325195 21.2405 0.325195H25.0301C30.118 0.325195 34.2585 4.46569 34.2585 9.55358Z" fill="#FFC973"/>
</svg>
