<svg width="47" height="33" viewBox="0 0 47 33" fill="none" xmlns="http://www.w3.org/2000/svg">
<path d="M44.6955 19.206C44.6955 18.1523 44.3794 17.4147 43.7998 16.9932C42.9569 16.3083 40.9549 16.3083 40.2173 16.6245C39.8485 16.7825 39.7431 17.0986 39.7431 17.2567C39.5851 19.5748 39.2163 21.4188 38.6367 22.7359L38.3206 23.5262L39.1636 23.4735C44.274 23.2627 44.6955 20.1543 44.6955 19.206ZM40.7441 17.5728C41.2183 17.4674 42.6408 17.4674 43.1149 17.8362C43.431 18.0996 43.5891 18.5211 43.5891 19.206C43.5891 20.2597 43.0622 21.9456 39.8485 22.3144C40.3226 21.05 40.5861 19.4694 40.7441 17.5728Z" fill="#FFC973"/>
<path d="M22.6205 8.93247C22.9367 8.93247 23.1474 8.72173 23.1474 8.40562V3.34788C23.1474 3.03177 22.9367 2.82104 22.6205 2.82104C22.3044 2.82104 22.0937 3.03177 22.0937 3.34788V8.40562C22.0937 8.66905 22.3571 8.93247 22.6205 8.93247Z" fill="#FFC973"/>
<path d="M28.6266 8.61636C28.9427 8.61636 29.1535 8.40562 29.1535 8.08951V0.871697C29.1535 0.555588 28.9427 0.344849 28.6266 0.344849C28.3105 0.344849 28.0998 0.555588 28.0998 0.871697V8.08951C28.0998 8.35294 28.3632 8.61636 28.6266 8.61636Z" fill="#FFC973"/>
<path d="M34.58 8.93247C34.8961 8.93247 35.1068 8.72173 35.1068 8.40562V3.34788C35.1068 3.03177 34.8961 2.82104 34.58 2.82104C34.2639 2.82104 34.0531 3.03177 34.0531 3.34788V8.40562C34.0531 8.66905 34.2639 8.93247 34.58 8.93247Z" fill="#FFC973"/>
<path d="M44.9062 15.5181C43.5891 14.5171 41.9032 14.5171 40.8495 14.6224C40.8495 13.8322 40.8495 13.2526 40.7968 12.9892C40.7968 12.7258 40.5334 12.4624 40.27 12.4624H17.0886C16.8252 12.4624 16.5618 12.6731 16.5618 12.9892C16.5618 13.358 16.5091 14.201 16.5618 15.2546C15.2447 14.5171 13.5061 13.9902 11.3987 13.9902C5.07651 13.9902 1.59931 19.8382 1.33589 23.3681H1.01978C0.809041 23.3154 0.650987 23.4208 0.492933 23.5788C0.387563 23.7369 0.334878 23.9476 0.440248 24.1057L4.18087 32.5879C4.28624 32.7987 4.44429 32.9041 4.65503 32.9041H18.5638C18.7746 32.9041 18.9853 32.7987 19.038 32.5879L21.3034 27.3195C21.6722 27.6883 21.9883 27.899 22.1991 28.1097C22.4098 28.3205 22.6732 28.4785 22.7259 28.5839L22.7786 28.6893C23.1474 29.2688 23.885 30.5332 28.6793 30.5332C33.4736 30.5332 34.2112 29.2688 34.58 28.6893L34.6327 28.5839C34.6854 28.5312 34.8961 28.3205 35.1595 28.1097C35.7391 27.6356 36.6874 26.8453 38.1099 25.2648C39.1109 25.2648 42.9042 25.0013 45.0643 22.8939C46.0653 21.8929 46.5921 20.6812 46.5921 19.206C46.5394 17.5728 45.9599 16.361 44.9062 15.5181ZM5.02383 31.8504L1.81005 24.5799L4.18087 25.0013L6.60437 31.903H5.02383V31.8504ZM7.76343 31.8504L5.23456 24.6852L6.02484 23.8423L6.86779 22.9993L7.07853 23.8423L8.9225 31.8504H7.76343ZM11.0826 31.8504H10.0289L8.13223 23.8423L7.8688 22.7886L10.9772 23.895L11.0826 23.9476V31.8504ZM11.6094 22.9993L7.34196 21.4715H7.23659C7.1839 21.4715 7.13122 21.4715 7.02585 21.4715C6.97316 21.4715 6.92048 21.5241 6.86779 21.5241C6.86779 21.5241 6.81511 21.5241 6.81511 21.5768C6.81511 21.5768 6.76242 21.5768 6.76242 21.6295L4.54966 23.9476H4.12818L2.3369 23.6315C2.54764 20.5758 5.70873 15.1493 11.346 15.1493C13.1373 15.1493 14.9813 15.6761 16.5618 16.6771C16.9306 16.9406 17.2994 17.204 17.6682 17.4674C19.3541 18.9426 20.5658 20.9973 20.6712 23.5788L19.4595 23.8423L19.2487 23.895H18.9326L17.7735 23.052L15.7715 21.5241C15.7715 21.5241 15.7715 21.5241 15.7188 21.5241C15.6662 21.4715 15.6135 21.4715 15.5608 21.4715C15.5081 21.4715 15.4554 21.4715 15.4027 21.4715H15.2974L11.6094 22.9993ZM12.1363 23.895H12.189L14.7705 22.8413L14.6125 23.895L13.2953 31.903H12.1363V23.895ZM14.349 31.8504L15.6662 23.8423L15.8242 22.8413L17.194 23.8423L18.3004 24.6325L15.4554 31.7977H14.349V31.8504ZM20.9873 25.5282L20.5658 26.5819L18.3004 31.903H16.6145L19.2487 25.2121L19.3541 25.0013L20.2497 24.7906L21.4615 24.4745L20.9873 25.5282ZM44.274 22.1564C42.1666 24.2638 37.8991 24.2111 37.8465 24.2111H37.583L37.425 24.3691C35.9498 26.0023 35.0015 26.7926 34.4219 27.2668C34.0532 27.5829 33.8424 27.7409 33.737 27.9517C33.737 28.0044 33.6844 28.0044 33.6844 28.0571C33.4736 28.4259 32.8941 29.3742 28.6793 29.3742C24.5172 29.3742 23.9377 28.4259 23.6742 28.0571C23.7269 28.0571 23.6742 28.0571 23.6742 28.0044C23.5162 27.7936 23.3055 27.6356 22.9893 27.3195C22.7259 27.056 22.3044 26.7399 21.8303 26.3185L22.884 23.895C22.9367 23.7369 22.9367 23.4735 22.7786 23.3681C22.6732 23.2101 22.4625 23.1574 22.2518 23.2101L21.7776 23.3154C21.6195 21.1553 20.6712 18.9953 19.1434 17.3094C18.7219 16.8879 18.2477 16.4137 17.6682 15.9922C17.6155 15.1493 17.6155 14.359 17.6682 13.5687H39.8485C39.8485 13.9902 39.8485 14.5697 39.8485 15.2546V15.9396L40.4807 15.7815C41.0602 15.6761 43.0096 15.36 44.3267 16.361C45.117 16.9932 45.5384 17.9416 45.5384 19.206C45.4858 20.4178 45.0643 21.4188 44.274 22.1564Z" fill="#FFC973"/>
<path d="M14.2437 18.3631C14.8838 18.3631 15.4027 17.8441 15.4027 17.204C15.4027 16.5639 14.8838 16.0449 14.2437 16.0449C13.6035 16.0449 13.0846 16.5639 13.0846 17.204C13.0846 17.8441 13.6035 18.3631 14.2437 18.3631Z" fill="#FFC973"/>
<path d="M10.1343 18.8899C10.6289 18.8899 11.0299 18.4889 11.0299 17.9943C11.0299 17.4996 10.6289 17.0986 10.1343 17.0986C9.6396 17.0986 9.23861 17.4996 9.23861 17.9943C9.23861 18.4889 9.6396 18.8899 10.1343 18.8899Z" fill="#FFC973"/>
<path d="M12.5578 20.8392C12.936 20.8392 13.2427 20.5326 13.2427 20.1543C13.2427 19.7761 12.936 19.4694 12.5578 19.4694C12.1795 19.4694 11.8728 19.7761 11.8728 20.1543C11.8728 20.5326 12.1795 20.8392 12.5578 20.8392Z" fill="#FFC973"/>
</svg>
