<svg width="59" height="69" viewBox="0 0 59 69" fill="none" xmlns="http://www.w3.org/2000/svg">
<path d="M27.909 57.6124C34.2408 57.6124 40.0745 54.1001 44.3084 48.5222C48.2123 48.2568 51.5596 47.2533 54.243 45.5376C57.1435 43.6826 58.6681 40.2674 58.0304 37.0532C57.2114 32.9258 53.67 31.5338 50.8957 31.2781C51.0284 29.9929 51.1029 28.6916 51.1029 27.3675C51.1029 26.4546 50.3584 25.7101 49.4455 25.7101H6.35243C5.43952 25.7101 4.69501 26.4547 4.69501 27.3675C4.70472 43.7636 15.3358 57.6124 27.909 57.6124ZM55.6029 37.5327C56.0431 39.7534 54.9652 42.1327 52.9096 43.4405C51.5435 44.3178 49.339 45.331 46.1374 45.8198C48.2578 42.3075 49.8019 38.1963 50.5626 33.7455C52.2653 33.8782 55.017 34.5578 55.6029 37.5327ZM47.7658 29.0218C47.1119 42.8862 38.2845 54.2975 27.9189 54.2975C17.5501 54.2975 8.72595 42.8862 8.07209 29.0218H47.7658Z" fill="white"/>
<path d="M27.909 51.3978C34.529 51.3978 41.5927 44.9656 43.2402 36.481L12.8107 36.4065C14.4001 45.0077 21.237 51.3978 27.909 51.3978Z" fill="white"/>
<path d="M26.2515 12.0334C26.2515 12.0334 30.4048 11.3051 33.5352 9.44047C37.2547 7.22624 36.345 1.5774 32.127 0.622145C31.8454 0.557402 31.5476 0.499132 31.2336 0.431152C31.2239 0.431152 37.8535 7.06116 26.2515 12.0334Z" fill="white"/>
<path d="M25.4229 16.3103C25.4229 16.3103 28.5888 13.8565 33.9918 13.3612C36.2449 13.154 38.4753 12.6911 40.5146 11.7135C43.1983 10.4283 45.7265 8.29826 43.9784 5.09346C43.9784 5.09346 42.4116 3.32922 39.9255 3.32922C39.9255 3.32922 43.4217 8.35006 35.8726 11.2278C35.8726 11.2278 27.8769 12.4547 23.4908 14.9312C21.419 16.0998 20.7133 18.7187 21.9402 20.758C22.429 21.5706 23.1412 22.4316 24.1868 23.2183C24.1803 23.2216 20.865 18.5147 25.4229 16.3103Z" fill="white"/>
<path d="M1.06698 61.9962C1.79534 62.362 13.5142 68.1112 28.9192 68.1112C36.8664 68.1112 45.8075 66.5767 54.7261 61.9865C55.4059 61.6369 55.762 60.8664 55.5807 60.1219C55.3993 59.3774 54.7358 58.8529 53.9718 58.8529L1.8052 58.8562C1.03475 58.8562 0.371109 59.3871 0.18987 60.1316C0.0150615 60.8859 0.380698 61.6562 1.06698 61.9962ZM45.6782 62.171C32.2697 66.5056 19.3567 64.4661 11.2121 62.171H45.6782Z" fill="white"/>
</svg>
