<svg width="47" height="51" viewBox="0 0 47 51" fill="currentColor" xmlns="http://www.w3.org/2000/svg">
<path fill-rule="evenodd" clip-rule="evenodd" d="M45.4502 40.2971C45.0212 39.6662 44.4408 39.0858 44.0371 38.5812C43.1035 37.3952 42.1446 36.2092 41.1352 35.0989C40.1259 33.9886 39.7221 33.6101 38.9651 32.9036C38.3618 32.314 37.7121 31.7739 37.0221 31.2886C36.4158 30.8983 35.7223 30.6642 35.0034 30.6073C34.4083 30.5962 33.8222 30.7536 33.3128 31.0615C32.1268 31.7176 30.5371 33.3326 29.0483 34.3419C28.7539 34.5608 28.4314 34.739 28.0894 34.8718C27.8875 34.8718 27.7109 35.0484 27.5847 34.8718L19.4847 25.5606C18.3997 24.3494 16.9614 23.0372 15.5987 21.4223C14.8492 20.5576 14.2596 19.5665 13.8576 18.4951C13.8576 18.0662 14.0595 17.6624 14.438 17.183C15.4726 15.7699 17.3399 14.4073 18.4249 13.1456C19.0143 12.5427 19.4324 11.7936 19.6361 10.9755C19.6977 10.5385 19.6088 10.0935 19.3838 9.71382C19.081 9.20914 18.5511 8.7297 18.2987 8.37643L13.8071 2.59791C13.7518 2.49919 13.6757 2.41365 13.5841 2.3472C13.4924 2.28075 13.3875 2.23497 13.2765 2.21303C13.1654 2.19108 13.051 2.1935 12.9409 2.2201C12.8309 2.2467 12.728 2.29686 12.6393 2.36711C12.5505 2.43737 12.4781 2.52604 12.427 2.62701C12.3758 2.72798 12.3472 2.83885 12.3431 2.95196C12.339 3.06506 12.3594 3.17771 12.4031 3.28214C12.4467 3.38656 12.5125 3.48027 12.5959 3.55679L16.9109 9.31008L17.9455 10.6727C17.8193 11.3288 17.0875 11.9848 16.28 12.7166C14.9794 13.7895 13.7645 14.9622 12.6464 16.2241C12.3289 16.5946 12.1003 17.0327 11.9778 17.505C11.8554 17.9773 11.8424 18.4713 11.9399 18.9493C12.3875 20.2932 13.0806 21.5423 13.9838 22.6335C15.195 24.198 16.7343 25.712 17.8193 26.9484L25.5913 36.4868C25.9586 36.9451 26.4619 37.2751 27.0287 37.4293C27.5955 37.5835 28.1966 37.5538 28.7455 37.3447C30.3276 36.643 31.785 35.6885 33.0605 34.5185C33.4973 34.1671 33.9521 33.8387 34.4231 33.5344C34.5745 33.5344 34.852 33.5344 34.852 33.3578C35.1783 33.4371 35.481 33.5928 35.7352 33.812C36.1931 34.1748 36.6232 34.5712 37.0221 34.998C37.716 35.633 38.3731 36.307 38.9904 37.0167C39.9493 38.1017 40.8577 39.2372 41.7408 40.3728C42.0941 40.7765 42.5483 41.2559 42.9016 41.7354C43.0605 41.9242 43.1883 42.1372 43.2801 42.3662C43.6081 43.4513 42.6745 44.3092 41.6904 45.0662C40.4716 45.9619 39.1051 46.6366 37.653 47.0597C32.6213 48.5005 27.2365 48.0517 22.5128 45.798C17.7216 43.4382 13.4956 40.0729 10.123 35.9316C5.75982 31.2133 3.18833 25.1149 2.85572 18.697C2.60339 10.7989 6.23704 4.31381 10.1987 2.34558C10.3016 2.29962 10.3941 2.23327 10.4706 2.15053C10.547 2.0678 10.6059 1.9704 10.6437 1.86425C10.6814 1.75809 10.6972 1.64537 10.6901 1.53293C10.6831 1.42048 10.6532 1.31064 10.6025 1.21006C10.5561 1.1073 10.49 1.01469 10.4078 0.937506C10.3256 0.860327 10.2291 0.800095 10.1236 0.760257C10.0182 0.720418 9.90588 0.701752 9.79321 0.705326C9.68053 0.708901 9.56967 0.734645 9.46695 0.781087C5.00059 2.85025 0.635157 9.94092 0.736092 18.7475C0.990566 25.7123 3.66789 32.3699 8.3062 37.5718C11.8333 42.0263 16.273 45.6744 21.3268 48.2709C26.6383 50.8696 32.7242 51.409 38.41 49.7849C40.6181 49.1571 42.6545 48.0353 44.3651 46.5045C45.0892 45.9044 45.6311 45.1139 45.9298 44.2222C46.2286 43.3304 46.2722 42.373 46.0558 41.4578C45.908 41.045 45.7042 40.6545 45.4502 40.2971Z" fill="#0397B5"/>
</svg>
