<svg width="23" height="23" viewBox="0 0 23 23" fill="none" xmlns="http://www.w3.org/2000/svg">
<path d="M20.4004 10.9988H22.8004C22.8004 4.84284 18.1528 0.200043 11.9884 0.200043V2.60004C16.8628 2.60004 20.4004 6.13164 20.4004 10.9988Z" fill="#FFC973"/>
<path d="M12.0003 7.40007C14.5239 7.40007 15.6003 8.47647 15.6003 11.0001H18.0003C18.0003 7.13007 15.8703 5.00007 12.0003 5.00007V7.40007ZM16.1067 13.9317C15.8762 13.7221 15.5732 13.6103 15.2617 13.6199C14.9503 13.6296 14.6547 13.7598 14.4375 13.9833L11.5659 16.9365C10.8747 16.8045 9.48514 16.3713 8.05474 14.9445C6.62434 13.5129 6.19114 12.1197 6.06274 11.4333L9.01354 8.56047C9.23723 8.34342 9.3677 8.04785 9.37733 7.73632C9.38696 7.42478 9.275 7.12172 9.06514 6.89127L4.63114 2.01567C4.42119 1.7845 4.12939 1.64427 3.81772 1.62478C3.50605 1.60529 3.19906 1.70806 2.96194 1.91127L0.357939 4.14447C0.150472 4.35269 0.0266418 4.62981 0.00993834 4.92327C-0.00806166 5.22327 -0.351262 12.3297 5.15914 17.8425C9.96634 22.6485 15.9879 23.0001 17.6463 23.0001C17.8887 23.0001 18.0375 22.9929 18.0771 22.9905C18.3706 22.974 18.6475 22.8497 18.8547 22.6413L21.0867 20.0361C21.2901 19.7991 21.3931 19.4922 21.3738 19.1805C21.3545 18.8689 21.2145 18.577 20.9835 18.3669L16.1067 13.9317Z" fill="#FFC973"/>
</svg>
