<svg width="24" height="24" viewBox="0 0 24 24" fill="none" xmlns="http://www.w3.org/2000/svg">
<path fill-rule="evenodd" clip-rule="evenodd" d="M21.2543 4.97508C20.0682 3.57405 18.571 2.46962 16.8823 1.74987C15.1936 1.03013 13.3601 0.715004 11.528 0.829631C9.69589 0.944259 7.91593 1.48547 6.33012 2.41009C4.7443 3.3347 3.39651 4.61713 2.39427 6.15507C-0.925727 11.0751 0.794274 18.2951 4.11427 20.4351C4.24861 20.4978 4.40099 20.5104 4.54377 20.4704C4.68656 20.4304 4.81029 20.3406 4.89254 20.2173C4.97478 20.0939 5.01009 19.9451 4.99206 19.798C4.97404 19.6508 4.90387 19.5149 4.79427 19.4151C2.15427 17.5551 0.974274 11.2351 3.95427 7.25507C4.83145 6.05804 5.96406 5.07124 7.26994 4.36626C8.57583 3.66128 10.0223 3.25578 11.5043 3.17919C12.9864 3.1026 14.4669 3.35683 15.8385 3.92344C17.2101 4.49005 18.4384 5.35484 19.4343 6.45508C24.3343 12.2551 21.4343 21.0551 12.8143 22.0751C11.2317 22.2808 9.62356 22.1513 8.09427 21.6951C8.00629 21.6675 7.91373 21.6575 7.82189 21.6657C7.73005 21.6739 7.64072 21.7001 7.559 21.7428C7.47729 21.7855 7.40479 21.8439 7.34564 21.9147C7.28649 21.9854 7.24185 22.0671 7.21427 22.1551C7.1867 22.2431 7.17672 22.3356 7.18491 22.4275C7.1931 22.5193 7.2193 22.6086 7.26202 22.6903C7.30473 22.7721 7.36313 22.8446 7.43386 22.9037C7.5046 22.9629 7.58629 23.0075 7.67427 23.0351C9.38221 23.591 11.1879 23.7817 12.9743 23.5951C15.1072 23.5417 17.1812 22.8845 18.9556 21.6998C20.73 20.5151 22.1321 18.8514 22.999 16.9019C23.8659 14.9524 24.1621 12.797 23.8533 10.6859C23.5445 8.57481 22.6433 6.59458 21.2543 4.97508Z" fill="black"/>
<path fill-rule="evenodd" clip-rule="evenodd" d="M11.0336 11.8151C9.56027 13.2865 8.33747 14.989 7.4136 16.8551C7.25339 17.1835 7.20193 17.5543 7.26665 17.9139C7.33138 18.2735 7.50894 18.6032 7.7736 18.8551C8.8136 19.8551 7.9736 17.9351 10.8736 15.2151C11.5336 14.4951 12.2736 13.8151 13.0336 13.1151C14.0736 13.9951 16.2736 15.7951 16.3736 17.2551C16.3736 17.4407 16.4473 17.6188 16.5786 17.75C16.7099 17.8813 16.8879 17.9551 17.0736 17.9551C17.2592 17.9551 17.4373 17.8813 17.5686 17.75C17.6998 17.6188 17.7736 17.4407 17.7736 17.2551C17.9336 15.2551 16.0936 12.9751 14.6736 11.5351C15.8198 10.437 17.0804 9.46479 18.4336 8.63507C18.5163 8.59436 18.5902 8.53775 18.6511 8.46848C18.7119 8.39921 18.7586 8.31863 18.7883 8.23135C18.818 8.14406 18.8302 8.05177 18.8243 7.95976C18.8183 7.86774 18.7943 7.7778 18.7536 7.69507C18.7129 7.61234 18.6563 7.53844 18.587 7.47758C18.5177 7.41672 18.4372 7.37011 18.3499 7.34039C18.2626 7.31068 18.1703 7.29845 18.0783 7.3044C17.9863 7.31035 17.8963 7.33436 17.8136 7.37507C16.1058 8.07673 14.4931 8.99058 13.0136 10.0951C11.9536 9.23507 8.6136 6.79507 8.0736 6.35507C6.5536 4.89507 6.3136 6.49507 6.9736 7.07507C7.1736 7.35507 8.9736 9.35507 9.5136 9.97507C11.5336 11.9751 11.3736 11.4751 11.0336 11.8151Z" fill="black"/>
</svg>
