<svg width="52" height="47" viewBox="0 0 52 47" fill="none" xmlns="http://www.w3.org/2000/svg">
<path d="M25.0824 22.1131C24.2634 21.4201 24.2634 20.9161 21.9744 20.9371C21.1231 21.063 20.3287 21.4399 19.6927 22.0198C19.0568 22.5996 18.6082 23.3559 18.4044 24.1921C18.2146 24.8207 18.2193 25.492 18.4179 26.1179C18.6165 26.7438 18.9998 27.295 19.5174 27.6991C20.2416 28.1087 21.0686 28.3008 21.8992 28.2524C22.7298 28.204 23.5288 27.9171 24.2004 27.4261C24.9152 27.0195 25.4719 26.3837 25.7806 25.6216C26.0893 24.8594 26.1319 24.0154 25.9014 23.2261C25.7237 22.7936 25.4424 22.4114 25.0824 22.1131ZM22.9824 25.7041C22.6626 25.9427 22.2813 26.0852 21.8834 26.1149C21.4854 26.1447 21.0872 26.0604 20.7354 25.8721C20.2104 25.5361 20.2944 24.8221 20.5044 24.1921C20.7144 23.5621 21.2814 22.5541 21.9954 22.4281C22.3283 22.3878 22.6659 22.4278 22.9801 22.5447C23.2943 22.6616 23.5759 22.852 23.8014 23.1001C24.0105 23.2814 24.1574 23.5238 24.2214 23.7931C24.5154 24.6121 23.8224 25.2841 23.0664 25.7041H22.9824Z" fill="#FFC973"/>
<path d="M12.6499 33.1171C11.8309 32.4241 11.8309 31.9201 9.52094 31.9411C8.6734 32.0709 7.88354 32.4496 7.25165 33.0292C6.61975 33.6087 6.17433 34.363 5.97194 35.1961C5.76326 35.8363 5.75824 36.5254 5.95758 37.1686C6.15691 37.8117 6.55079 38.3772 7.08494 38.7871C7.80911 39.1968 8.63605 39.3889 9.46665 39.3405C10.2973 39.2921 11.0963 39.0052 11.7679 38.5141C12.4827 38.1076 13.0394 37.4718 13.3481 36.7096C13.6568 35.9475 13.6993 35.1035 13.4689 34.3141C13.3035 33.8513 13.0214 33.439 12.6499 33.1171ZM10.5499 36.7081C10.2301 36.9467 9.84883 37.0893 9.45088 37.119C9.05292 37.1488 8.65473 37.0645 8.30294 36.8761C7.77794 36.5401 7.86194 35.8261 8.07194 35.1961C8.28194 34.5661 8.82794 33.5581 9.56294 33.4321C9.89239 33.3953 10.2259 33.437 10.5361 33.5538C10.8464 33.6706 11.1246 33.8592 11.3479 34.1041C11.5626 34.2844 11.7166 34.5263 11.7889 34.7971C12.0829 35.6161 11.4529 36.2881 10.6339 36.7081H10.5499Z" fill="#FFC973"/>
<path d="M36.1704 21.8402C35.3094 21.1052 35.3094 20.6432 33.0414 20.6432C32.1911 20.7744 31.3993 21.1562 30.7671 21.7398C30.1349 22.3233 29.6911 23.0821 29.4924 23.9192C29.2853 24.5562 29.2812 25.2419 29.4806 25.8814C29.6799 26.5209 30.073 27.0827 30.6054 27.4892C31.3245 27.9147 32.1543 28.116 32.9885 28.0674C33.8227 28.0188 34.6235 27.7224 35.2884 27.2162C36.0031 26.8096 36.5598 26.1739 36.8685 25.4117C37.1772 24.6495 37.2198 23.8055 36.9894 23.0162C36.8242 22.5592 36.5417 22.1536 36.1704 21.8402ZM34.0704 25.4312C33.7505 25.6698 33.3692 25.8123 32.9713 25.8421C32.5733 25.8718 32.1751 25.7876 31.8234 25.5992C31.2984 25.2632 31.3824 24.5282 31.5924 23.8982C31.8024 23.2682 32.3484 22.2602 33.0834 22.1552C33.5646 22.0762 34.0583 22.1671 34.4797 22.4123C34.9012 22.6575 35.2242 23.0418 35.3934 23.4992C35.6034 24.3392 34.9104 24.9902 34.1544 25.4312H34.0704Z" fill="#FFC973"/>
<path d="M23.7382 32.8441C22.9192 32.1511 22.9192 31.6471 20.6092 31.6471C19.7524 31.7616 18.9518 32.1377 18.3167 32.724C17.6815 33.3103 17.2427 34.0783 17.0602 34.9231C16.85 35.5599 16.8442 36.2465 17.0438 36.8867C17.2434 37.5269 17.6383 38.0887 18.1732 38.4931C18.8944 38.9157 19.7253 39.1135 20.5596 39.0611C21.3938 39.0087 22.1935 38.7086 22.8562 38.1991C23.5709 37.7926 24.1277 37.1568 24.4363 36.3947C24.745 35.6325 24.7876 34.7885 24.5572 33.9991C24.3888 33.5497 24.1066 33.1518 23.7382 32.8441ZM21.6382 36.4351C21.3183 36.6737 20.9371 36.8163 20.5391 36.846C20.1412 36.8758 19.743 36.7915 19.3912 36.6031C18.8452 36.2671 18.9502 35.5321 19.1602 34.9021C19.3702 34.2721 19.9162 33.2641 20.6512 33.1591C20.9789 33.1197 21.3114 33.1581 21.6215 33.2712C21.9317 33.3843 22.2108 33.569 22.4362 33.8101C22.6509 33.9904 22.8048 34.2323 22.8772 34.5031C23.1502 35.3431 22.4782 36.0991 21.7222 36.4351H21.6382Z" fill="#FFC973"/>
<path d="M45.6829 22.0501C44.8639 21.3361 44.8429 20.8531 42.5539 20.8531C41.6972 20.9676 40.8966 21.3437 40.2614 21.93C39.6263 22.5163 39.1875 23.2842 39.0049 24.1291C38.7947 24.7659 38.789 25.4525 38.9886 26.0927C39.1882 26.7329 39.5831 27.2946 40.1179 27.6991C40.8371 28.1247 41.6669 28.326 42.5011 28.2774C43.3353 28.2287 44.1361 27.9323 44.8009 27.4261C45.5157 27.0196 46.0724 26.3838 46.3811 25.6216C46.6898 24.8595 46.7323 24.0155 46.5019 23.2261C46.3367 22.7691 46.0543 22.3636 45.6829 22.0501ZM43.5829 25.6411C43.2631 25.8797 42.8818 26.0223 42.4839 26.052C42.0859 26.0818 41.6877 25.9975 41.3359 25.8091C40.7899 25.4731 40.8949 24.7381 41.1049 24.1081C41.3149 23.4781 41.8609 22.4701 42.5959 22.3651C43.064 22.3066 43.5382 22.4073 43.942 22.6512C44.3458 22.895 44.6558 23.2677 44.8219 23.7091C45.0529 24.5491 44.4229 25.2001 43.6669 25.5991L43.5829 25.6411Z" fill="#FFC973"/>
<path d="M31.5071 31.8989C30.6596 32.0287 29.8697 32.4074 29.2378 32.9869C28.6059 33.5665 28.1605 34.3207 27.9581 35.1539C27.7494 35.7941 27.7444 36.4832 27.9438 37.1263C28.1431 37.7695 28.537 38.335 29.0711 38.7449C29.7968 39.1495 30.6229 39.3387 31.4524 39.2904C32.2819 39.242 33.0803 38.9581 33.7541 38.4719C34.4689 38.0653 35.0256 37.4296 35.3343 36.6674C35.643 35.9053 35.6855 35.0613 35.4551 34.2719C35.1282 33.5129 34.5714 32.8757 33.8631 32.45C33.1548 32.0242 32.3308 31.8315 31.5071 31.8989ZM32.6201 36.6659C32.3003 36.9045 31.919 37.047 31.5211 37.0768C31.1231 37.1065 30.7249 37.0223 30.3731 36.8339C29.8481 36.4979 29.9321 35.7839 30.1421 35.1329C30.3521 34.4819 30.9191 33.5159 31.6331 33.3899C31.9609 33.3505 32.2933 33.3889 32.6035 33.502C32.9136 33.6151 33.1927 33.7997 33.4181 34.0409C33.6289 34.2245 33.782 34.4652 33.8591 34.7339C34.0691 35.5109 33.3761 36.0989 32.6201 36.6029V36.6659Z" fill="#FFC973"/>
<path d="M34.0485 6.42614C33.8113 8.01836 33.9848 9.64478 34.5525 11.1511C34.932 11.8897 35.5686 12.464 36.3422 12.7657C37.1158 13.0674 37.9731 13.0757 38.7525 12.7891C39.2826 12.6607 39.772 12.4011 40.1756 12.0341C40.5793 11.6672 40.8842 11.2047 41.0625 10.6891C41.4059 9.51072 41.5339 8.28002 41.4405 7.05614V3.99014C41.4718 3.52517 41.4017 3.05895 41.2349 2.6238C41.0681 2.18865 40.8086 1.795 40.4745 1.47014C39.3549 0.710676 37.9895 0.403071 36.6525 0.60914C36.5625 0.606326 36.4728 0.621628 36.3888 0.654137C36.3049 0.686647 36.2283 0.735699 36.1636 0.798383C36.099 0.861066 36.0476 0.936102 36.0125 1.01903C35.9775 1.10196 35.9594 1.1911 35.9595 1.28114C35.9079 1.15165 35.8121 1.04467 35.689 0.979281C35.5659 0.913895 35.4236 0.894353 35.2875 0.92414C35.1502 0.962578 35.0246 1.03451 34.9219 1.13347C34.8193 1.23244 34.7429 1.35534 34.6995 1.49114C34.5743 2.22614 34.525 2.97206 34.5525 3.71714L34.2585 4.99814C34.149 5.4675 34.0788 5.94514 34.0485 6.42614ZM35.7915 5.56514C35.7915 5.56514 36.1275 1.65914 36.1275 1.51214C36.1804 1.63571 36.2682 1.74121 36.38 1.81579C36.4919 1.89036 36.623 1.93079 36.7575 1.93214C38.6475 1.93214 39.4455 2.28914 39.6555 3.02414C39.7237 4.36027 39.632 5.69975 39.3825 7.01414C39.3882 7.82715 39.2965 8.63792 39.1095 9.42914C38.9625 9.93314 38.7735 10.4371 38.2485 10.5631C38.0436 10.656 37.8205 10.7019 37.5956 10.6976C37.3707 10.6932 37.1496 10.6388 36.9484 10.5382C36.7472 10.4376 36.571 10.2934 36.4326 10.1161C36.2942 9.93873 36.1971 9.73275 36.1485 9.51314C35.8147 8.22546 35.6941 6.89181 35.7915 5.56514Z" fill="#FFC973"/>
<path d="M18.9082 5.77514C18.9082 5.98514 19.0552 6.19514 19.8742 6.27914C21.0502 6.27914 21.5542 6.65714 23.1712 6.74114H28.4422C29.8912 6.74114 30.7732 6.61514 32.2432 6.51014C32.9362 6.51014 33.4822 5.16614 32.5582 4.93514C30.9622 4.87214 29.8702 4.59914 28.2532 4.59914H24.0532C22.7546 4.59485 21.4571 4.672 20.1682 4.83014C19.2862 4.89314 18.8872 5.46014 18.9082 5.77514Z" fill="#FFC973"/>
<path d="M49.2532 6.84614C48.5445 6.0752 47.6116 5.54631 46.5862 5.33414C45.6143 5.0771 44.6075 4.97784 43.6042 5.04014C42.1132 5.25014 42.5122 6.27914 43.2892 6.27914C43.9928 6.27209 44.6956 6.32832 45.3892 6.44714C46.4367 6.52194 47.4182 6.98646 48.1402 7.74914C48.6296 8.73065 48.9085 9.80357 48.9592 10.8991C49.1692 12.5371 49.3372 14.6581 49.4422 16.9891C46.3552 16.9891 40.1602 16.7371 33.2092 16.6111H18.9712C11.4532 16.6741 4.92218 16.9261 2.86418 17.0101C2.85085 13.8418 3.17467 10.681 3.83018 7.58114C4.03676 7.2019 4.33965 6.88381 4.70833 6.65891C5.077 6.43402 5.49844 6.31027 5.93018 6.30014C6.80236 6.08791 7.70068 6.00303 8.59718 6.04814C8.71588 6.02771 8.825 5.97001 8.90871 5.88341C8.99242 5.7968 9.04637 5.68579 9.06275 5.56645C9.07913 5.44712 9.05708 5.32568 8.9998 5.21972C8.94252 5.11376 8.85299 5.0288 8.74418 4.97714C7.44326 4.69533 6.09709 4.69533 4.79618 4.97714C4.28088 5.10112 3.8009 5.34165 3.39315 5.68023C2.98539 6.0188 2.66075 6.44641 2.44418 6.93014C1.62518 8.86214 0.785178 19.5301 0.974178 28.9801C1.12118 35.8471 1.94018 42.0001 3.45218 43.8481C4.56518 45.1921 7.46318 45.9481 11.1172 46.2421C16.8082 46.6201 24.3682 45.9901 28.2742 45.9901C33.1795 46.1455 38.0897 45.9841 42.9742 45.5071C45.1761 45.3159 47.3178 44.6876 49.2742 43.6591C49.844 43.1761 50.2236 42.5062 50.3452 41.7691C51.0929 37.4567 51.4304 33.0832 51.3532 28.7071C51.3532 19.2991 50.5762 8.40014 49.2532 6.84614ZM48.7282 39.3121C48.6111 40.2337 48.3783 41.1368 48.0352 42.0001C45.6852 42.9838 43.1694 43.5112 40.6222 43.5541C35.7082 43.9531 30.2902 43.7641 28.2742 43.7641C24.4102 43.7641 16.9132 44.4151 11.2642 44.0791C8.36618 43.9111 5.97218 43.6171 5.09018 42.5671C3.66218 40.9081 3.05318 35.2591 2.86418 29.0221C2.72457 25.4327 2.71056 21.8395 2.82218 18.2491C4.92218 18.2491 11.3272 18.5851 18.9712 18.7321H33.2092C40.2022 18.6061 46.4182 18.4171 49.4842 18.3331C49.4842 20.4331 49.5892 22.8061 49.4842 25.1161C49.5263 29.8592 49.2738 34.6003 48.7282 39.3121Z" fill="#FFC973"/>
<path d="M10.3612 6.36314C10.1996 8.0447 10.3635 9.74165 10.8442 11.3611C11.2237 12.0997 11.8603 12.674 12.6339 12.9757C13.4075 13.2774 14.2648 13.2857 15.0442 12.9991C15.579 12.8757 16.0736 12.6181 16.4814 12.2507C16.8892 11.8834 17.1968 11.4182 17.3752 10.8991C17.7324 9.70905 17.8606 8.46202 17.7532 7.22414V4.15814C17.7817 3.69345 17.7103 3.22803 17.5437 2.79331C17.377 2.35858 17.119 1.96466 16.7872 1.63814C15.6714 0.869379 14.305 0.554037 12.9652 0.756139C12.7814 0.756139 12.6051 0.829151 12.4752 0.959114C12.3452 1.08908 12.2722 1.26534 12.2722 1.44914C12.2206 1.31965 12.1248 1.21267 12.0017 1.14728C11.8786 1.08189 11.7363 1.06235 11.6002 1.09214C11.4629 1.13058 11.3373 1.20251 11.2347 1.30147C11.132 1.40043 11.0556 1.52334 11.0122 1.65914C10.8545 2.34885 10.7631 3.05204 10.7392 3.75914L10.5082 4.87214V5.41814L10.3612 6.36314ZM12.0832 5.75414C12.0832 5.75414 12.4192 1.86914 12.4192 1.70114C12.4664 1.83028 12.5522 1.9418 12.6649 2.02066C12.7775 2.09952 12.9117 2.14192 13.0492 2.14214C14.9392 2.14214 15.7372 2.49914 15.9472 3.23414C16.0085 4.5711 15.9098 5.9106 15.6532 7.22414C15.655 8.03694 15.5634 8.84726 15.3802 9.63914C15.2542 10.1221 15.0652 10.6261 14.5402 10.7521C14.3353 10.845 14.1122 10.8909 13.8873 10.8866C13.6624 10.8822 13.4413 10.8278 13.2401 10.7272C13.0389 10.6266 12.8627 10.4824 12.7243 10.3051C12.5859 10.1277 12.4889 9.92175 12.4402 9.70214C12.1026 8.41513 11.9819 7.08083 12.0832 5.75414Z" fill="#FFC973"/>
</svg>
