<svg width="69" height="51" viewBox="0 0 69 51" fill="none" xmlns="http://www.w3.org/2000/svg">
<path d="M67.6991 6.13232C67.4473 4.61134 66.7467 3.2003 65.6873 2.08027C64.2353 1.46066 62.6754 1.13328 61.0968 1.11684C49.8725 0.507883 38.6217 0.57412 27.4053 1.3152C16.0142 2.05193 5.69988 3.55374 2.44123 5.8773C1.8948 6.38332 1.54373 7.06539 1.44947 7.80415C0.978235 11.4869 0.788778 15.2003 0.88275 18.9119C0.837771 28.4608 1.31073 38.0052 2.29955 47.5029C2.31769 47.6186 2.35875 47.7294 2.42033 47.8289C2.4819 47.9285 2.56275 48.0147 2.65811 48.0825C2.75348 48.1504 2.86145 48.1985 2.97567 48.224C3.08989 48.2496 3.20806 48.252 3.32325 48.2313C3.43843 48.2105 3.5483 48.1669 3.64641 48.1031C3.74451 48.0393 3.82887 47.9565 3.89453 47.8596C3.96019 47.7627 4.00582 47.6537 4.02875 47.5389C4.05168 47.4241 4.05144 47.3059 4.02805 47.1912C3.60301 44.4993 3.2063 35.8568 3.14963 27.0443C3.02316 21.2672 3.21235 15.4875 3.71635 9.731C8.36346 12.848 17.5443 18.9402 25.0534 23.0206L29.1904 25.0608C31.4132 26.2781 33.8452 27.0663 36.3595 27.3843C37.5031 27.2003 38.6001 26.7961 39.5898 26.1942C40.3604 25.7824 41.1077 25.3283 41.8283 24.8341L45.9087 22.0005C46.8721 21.2921 47.8072 20.612 48.7423 19.8186C54.2471 15.6042 59.3936 10.9411 64.1288 5.8773C64.1288 6.18899 64.3271 6.55736 64.4121 6.95407C65.2382 11.3919 65.6273 15.9 65.5739 20.4137C65.7201 28.1443 65.3794 35.8764 64.5538 43.5642C64.5538 44.1876 64.3555 44.8393 64.2705 45.2077H62.3153C57.2431 45.7178 46.4471 46.5112 35.4527 47.1912C23.0132 47.9563 10.347 48.608 5.52986 48.7214C5.39962 48.7214 5.27066 48.747 5.15033 48.7969C5.03 48.8467 4.92067 48.9198 4.82858 49.0119C4.73649 49.1039 4.66343 49.2133 4.61359 49.3336C4.56375 49.4539 4.5381 49.5829 4.5381 49.7131C4.54548 49.9787 4.6562 50.231 4.84671 50.4162C5.03723 50.6014 5.29249 50.705 5.5582 50.7049C11.9905 50.7049 32.3357 49.8832 47.5805 49.0614C54.8346 48.693 60.9268 48.2963 63.8171 48.013C64.6532 47.9666 65.4762 47.7848 66.254 47.4746C66.5677 47.2734 66.8066 46.9747 66.934 46.6245C67.2443 45.7638 67.4535 44.8699 67.5574 43.9609C68.501 36.1196 68.9458 28.2263 68.8892 20.3287C68.952 15.5692 68.5535 10.8149 67.6991 6.13232ZM49.7624 15.4265C46.2771 18.0335 42.7351 20.4704 40.0148 22.1138C38.8525 22.9694 37.5478 23.6122 36.1611 24.0124C34.9035 23.8522 33.6848 23.4684 32.5624 22.8789C30.0122 21.8305 26.7252 20.2153 23.2399 18.3735C16.0142 14.6615 8.02343 10.0994 4.08472 7.80415C7.42837 5.84896 17.0343 4.97054 27.5753 4.40382C38.6556 3.78928 49.7615 3.78928 60.8418 4.40382H62.5986C58.6088 8.40175 54.3174 12.0869 49.7624 15.4265Z" fill="#0397B5"/>
<path d="M50.9809 32.5415C51.9443 33.4766 52.936 34.3833 53.8145 35.2334C56.6481 37.8687 59.4817 40.1639 60.7851 41.439C60.9753 41.6225 61.2292 41.7251 61.4935 41.7251C61.7578 41.7251 62.0118 41.6225 62.2019 41.439C62.2962 41.3467 62.371 41.2365 62.4222 41.1148C62.4733 40.9932 62.4996 40.8626 62.4996 40.7306C62.4996 40.5987 62.4733 40.4681 62.4222 40.3464C62.371 40.2248 62.2962 40.1146 62.2019 40.0222C60.9835 38.5771 58.7166 35.8852 56.0247 32.9665C55.1179 32.0031 54.1734 31.0586 53.1911 30.1329C52.2276 29.1979 51.2359 28.2628 50.3575 27.2993C49.479 26.3359 48.0622 25.3725 46.9855 24.4657C45.0303 23.1339 43.5851 24.4657 44.9736 26.1376C45.937 27.186 46.9855 28.3478 48.1472 29.5379C49.309 30.728 50.0174 31.6064 50.9809 32.5415Z" fill="#0397B5"/>
<path d="M13.889 35.2051C10.9456 38.12 8.16449 41.1944 5.55819 44.4143C5.47261 44.5129 5.40728 44.6274 5.36595 44.7513C5.32461 44.8751 5.30808 45.0059 5.31729 45.1362C5.3265 45.2664 5.36127 45.3936 5.41962 45.5104C5.47797 45.6272 5.55876 45.7313 5.65737 45.8169C5.75598 45.9025 5.87048 45.9678 5.99434 46.0092C6.11819 46.0505 6.24898 46.067 6.37923 46.0578C6.50947 46.0486 6.63663 46.0139 6.75344 45.9555C6.87025 45.8972 6.97442 45.8164 7.06 45.7178C8.73183 44.0176 11.8488 41.439 15.2491 38.4071C17.0343 36.7919 18.9045 35.0917 20.633 33.3349C22.3615 31.5781 24.6567 29.0278 26.3002 27.0726C27.9437 25.1175 25.9035 24.239 23.9766 25.9675C22.5031 27.271 20.9163 28.6311 19.2445 30.1329C17.5727 31.6348 15.6175 33.5049 13.889 35.2051Z" fill="#0397B5"/>
</svg>
