<svg width="47" height="42" viewBox="0 0 47 42" fill="none" xmlns="http://www.w3.org/2000/svg">
<path d="M7.23575 3.86227C7.06701 4.08202 6.75308 4.12322 6.53335 3.95645C6.3136 3.78771 6.2724 3.47378 6.43917 3.25405C7.10234 2.38876 7.91072 1.66085 8.86426 1.16052C9.74131 0.701399 10.7322 0.436523 11.8348 0.436523C12.5471 0.436523 13.2122 0.542476 13.8303 0.734756C15.7276 1.3273 17.1462 2.75174 18.086 4.54309C19.0062 6.29718 19.4653 8.41029 19.4653 10.4294C19.4653 11.483 19.3397 12.517 19.0886 13.4686C20.0481 13.9454 20.8682 14.7263 21.4666 15.7053C22.122 16.7825 22.5104 18.1049 22.5104 19.5294C22.5104 21.3286 21.8924 22.963 20.8917 24.152C19.8715 25.3646 18.4568 26.114 16.8911 26.114H11.7527L11.7547 41.0139C11.7547 41.2905 11.529 41.5161 11.2524 41.5161C10.9757 41.5161 10.7501 41.2905 10.7501 41.0139V26.114H6.66707C4.80313 26.114 3.12163 25.182 1.91303 23.6771C0.727931 22.2017 -0.00585938 20.169 -0.00585938 17.934C-0.00585938 16.1838 0.443451 14.5573 1.20671 13.229C1.93854 11.9536 2.96275 10.9451 4.1596 10.3506C4.1596 9.67766 4.21846 8.98305 4.33618 8.28849C4.47157 7.49583 4.68543 6.69725 4.9758 5.9301C5.0739 5.67112 5.36232 5.54162 5.62133 5.63776C5.88032 5.73586 6.00982 6.02428 5.91368 6.2833C5.64684 6.98765 5.45063 7.72345 5.32505 8.45724C5.19752 9.19892 5.14454 9.93467 5.16416 10.6312C5.17986 10.8392 5.0641 11.0452 4.86004 11.1315C3.73382 11.6122 2.7626 12.5324 2.07587 13.7293C1.39698 14.9124 0.998718 16.3643 0.998718 17.9359C0.998718 19.9412 1.64622 21.7502 2.69393 23.0532C3.71619 24.3266 5.12294 25.1134 6.66712 25.1134H10.7502V16.559L8.40744 13.8297C8.22693 13.6198 8.25244 13.3039 8.46238 13.1234C8.67232 12.943 8.98823 12.9684 9.1687 13.1784L11.633 16.0488C11.7135 16.143 11.7527 16.2588 11.7527 16.3745V21.4466L14.3877 19.6239C14.6153 19.4669 14.9273 19.5238 15.0843 19.7514C15.2412 19.979 15.1843 20.291 14.9567 20.4479L11.7547 22.6631V25.1118H16.893C18.1507 25.1118 19.2966 24.4996 20.1285 23.5107C20.98 22.4983 21.5078 21.0915 21.5078 19.5317C21.5078 18.2956 21.1762 17.1536 20.6131 16.2295C20.0481 15.3015 19.2534 14.5912 18.3312 14.2282C18.0723 14.1419 17.929 13.8633 18.0095 13.6023C18.3116 12.6389 18.4607 11.552 18.4607 10.4316C18.4607 8.55982 18.0409 6.61346 17.1991 5.00845C16.3771 3.44077 15.1527 2.20077 13.5321 1.69452C13.0121 1.53167 12.4451 1.44338 11.8329 1.44338C10.895 1.44338 10.0572 1.66509 9.3254 2.04768C8.51115 2.47345 7.81267 3.1072 7.23383 3.86455L7.23575 3.86227ZM19.8381 31.8215C19.5615 31.8215 19.3358 31.5959 19.3358 31.3192C19.3358 31.0426 19.5615 30.817 19.8381 30.817H21.1763V29.2179H19.8381C19.5615 29.2179 19.3358 28.9922 19.3358 28.7156C19.3358 28.4389 19.5615 28.2133 19.8381 28.2133H21.1763V26.212C21.1763 25.9353 21.4019 25.7097 21.6785 25.7097H24.3234C24.6 25.7097 24.8257 25.9353 24.8257 26.212V28.2133H39.9806V26.212C39.9806 25.9353 40.2063 25.7097 40.4829 25.7097H43.1258C43.4025 25.7097 43.6281 25.9353 43.6281 26.212V28.2133H44.9662C45.2429 28.2133 45.4685 28.4389 45.4685 28.7156C45.4685 28.9922 45.2429 29.2179 44.9662 29.2179H43.6281V30.817H44.9662C45.2429 30.817 45.4685 31.0426 45.4685 31.3192C45.4685 31.5959 45.2429 31.8215 44.9662 31.8215H43.6281V33.8444H45.704C45.9806 33.8444 46.2062 34.07 46.2062 34.3467V36.8464C46.2062 37.123 45.9806 37.3486 45.704 37.3486H43.6281V41.0118C43.6281 41.2885 43.4025 41.5141 43.1258 41.5141H40.4829C40.2063 41.5141 39.9806 41.2885 39.9806 41.0118V37.3486H37.6792C37.4025 37.3486 37.1769 37.123 37.1769 36.8464C37.1769 36.5697 37.4025 36.3441 37.6792 36.3441H45.2019V34.849H19.6029V36.3441H32.5132C32.7898 36.3441 33.0154 36.5697 33.0154 36.8464C33.0154 37.123 32.7898 37.3486 32.5132 37.3486H24.8237V41.0118C24.8237 41.2885 24.598 41.5141 24.3214 41.5141H21.6765C21.3999 41.5141 21.1742 41.2885 21.1742 41.0118V37.3486H19.0984C18.8217 37.3486 18.5961 37.123 18.5961 36.8464V34.3467C18.5961 34.07 18.8217 33.8444 19.0984 33.8444H21.1742V31.8215H19.8361H19.8381ZM22.1808 30.817H23.8191V29.2179H22.1808V30.817ZM24.8257 30.817H39.9806V29.2179H24.8257V30.817ZM40.9852 30.817H42.6235V29.2179H40.9852V30.817ZM42.6235 31.8215H40.9852V33.8444H42.6235V31.8215ZM39.9806 31.8215H24.8257V33.8444H39.9806V31.8215ZM23.8211 31.8215H22.1828V33.8444H23.8211V31.8215ZM22.1828 28.2133H23.8211V26.7143H22.1828V28.2133ZM40.9874 28.2133H42.6257V26.7143H40.9874V28.2133ZM22.1828 37.3504V40.5113H23.8211V37.3504H22.1828ZM40.9874 37.3504V40.5113H42.6257V37.3504H40.9874ZM35.1347 36.3458C35.4114 36.3458 35.637 36.5715 35.637 36.8481C35.637 37.1248 35.4114 37.3504 35.1347 37.3504H35.0621C34.7855 37.3504 34.5599 37.1248 34.5599 36.8481C34.5599 36.5715 34.7855 36.3458 35.0621 36.3458H35.1347Z" fill="#FFC973"/>
</svg>
