<svg width="71" height="72" viewBox="0 0 71 72" fill="none" xmlns="http://www.w3.org/2000/svg">
<g filter="url(#filter0_d_118_218)">
<path d="M22.0988 0.959137H48.3068C58.2908 0.959137 66.4028 9.07114 66.4028 19.0551V45.2631C66.4028 50.0625 64.4963 54.6653 61.1026 58.0589C57.709 61.4526 53.1062 63.3591 48.3068 63.3591H22.0988C12.1148 63.3591 4.00281 55.2471 4.00281 45.2631V19.0551C4.00281 14.2558 5.90935 9.65299 9.303 6.25933C12.6967 2.86567 17.2995 0.959137 22.0988 0.959137ZM21.4748 7.19914C18.4959 7.19914 15.639 8.38251 13.5326 10.4889C11.4262 12.5953 10.2428 15.4522 10.2428 18.4311V45.8871C10.2428 52.0959 15.266 57.1191 21.4748 57.1191H48.9308C51.9097 57.1191 54.7666 55.9358 56.873 53.8294C58.9794 51.723 60.1628 48.866 60.1628 45.8871V18.4311C60.1628 12.2223 55.1396 7.19914 48.9308 7.19914H21.4748ZM51.5828 11.8791C52.6172 11.8791 53.6091 12.29 54.3405 13.0214C55.0719 13.7528 55.4828 14.7448 55.4828 15.7791C55.4828 16.8135 55.0719 17.8055 54.3405 18.5369C53.6091 19.2682 52.6172 19.6791 51.5828 19.6791C50.5485 19.6791 49.5565 19.2682 48.8251 18.5369C48.0937 17.8055 47.6828 16.8135 47.6828 15.7791C47.6828 14.7448 48.0937 13.7528 48.8251 13.0214C49.5565 12.29 50.5485 11.8791 51.5828 11.8791ZM35.2028 16.5591C39.3402 16.5591 43.3081 18.2027 46.2337 21.1283C49.1592 24.0538 50.8028 28.0218 50.8028 32.1591C50.8028 36.2965 49.1592 40.2644 46.2337 43.19C43.3081 46.1156 39.3402 47.7591 35.2028 47.7591C31.0654 47.7591 27.0975 46.1156 24.1719 43.19C21.2464 40.2644 19.6028 36.2965 19.6028 32.1591C19.6028 28.0218 21.2464 24.0538 24.1719 21.1283C27.0975 18.2027 31.0654 16.5591 35.2028 16.5591ZM35.2028 22.7991C32.7204 22.7991 30.3396 23.7853 28.5843 25.5406C26.8289 27.296 25.8428 29.6767 25.8428 32.1591C25.8428 34.6416 26.8289 37.0223 28.5843 38.7777C30.3396 40.533 32.7204 41.5191 35.2028 41.5191C37.6852 41.5191 40.066 40.533 41.8213 38.7777C43.5767 37.0223 44.5628 34.6416 44.5628 32.1591C44.5628 29.6767 43.5767 27.296 41.8213 25.5406C40.066 23.7853 37.6852 22.7991 35.2028 22.7991Z" fill="white"/>
</g>
<defs>
<filter id="filter0_d_118_218" x="0.00280762" y="0.959137" width="70.4" height="70.4" filterUnits="userSpaceOnUse" color-interpolation-filters="sRGB">
<feFlood flood-opacity="0" result="BackgroundImageFix"/>
<feColorMatrix in="SourceAlpha" type="matrix" values="0 0 0 0 0 0 0 0 0 0 0 0 0 0 0 0 0 0 127 0" result="hardAlpha"/>
<feOffset dy="4"/>
<feGaussianBlur stdDeviation="2"/>
<feComposite in2="hardAlpha" operator="out"/>
<feColorMatrix type="matrix" values="0 0 0 0 0 0 0 0 0 0 0 0 0 0 0 0 0 0 0.25 0"/>
<feBlend mode="normal" in2="BackgroundImageFix" result="effect1_dropShadow_118_218"/>
<feBlend mode="normal" in="SourceGraphic" in2="effect1_dropShadow_118_218" result="shape"/>
</filter>
</defs>
</svg>
