<svg width="21" height="26" viewBox="0 0 21 26" fill="none" xmlns="http://www.w3.org/2000/svg">
<path d="M10.2647 0C7.63997 0.00309642 5.12367 1.04712 3.26773 2.90306C1.41179 4.759 0.367761 7.27531 0.364665 9.9C0.361521 12.0449 1.06215 14.1316 2.35907 15.84C2.35907 15.84 2.62907 16.1955 2.67317 16.2468L10.2647 25.2L17.8598 16.2423C17.8994 16.1946 18.1703 15.84 18.1703 15.84L18.1712 15.8373C19.4674 14.1297 20.1677 12.0439 20.1647 9.9C20.1616 7.27531 19.1175 4.759 17.2616 2.90306C15.4057 1.04712 12.8894 0.00309642 10.2647 0V0ZM10.2647 13.5C9.55265 13.5 8.85663 13.2889 8.26461 12.8933C7.6726 12.4977 7.21117 11.9355 6.9387 11.2777C6.66622 10.6198 6.59493 9.89601 6.73384 9.19768C6.87274 8.49934 7.21561 7.85788 7.71908 7.35442C8.22255 6.85095 8.86401 6.50808 9.56234 6.36917C10.2607 6.23027 10.9845 6.30156 11.6423 6.57403C12.3001 6.84651 12.8624 7.30793 13.258 7.89995C13.6535 8.49196 13.8647 9.18799 13.8647 9.9C13.8635 10.8544 13.4838 11.7694 12.8089 12.4443C12.1341 13.1191 11.2191 13.4988 10.2647 13.5V13.5Z" fill="#FFC973"/>
</svg>
