<svg width="56" height="69" viewBox="0 0 56 69" fill="none" xmlns="http://www.w3.org/2000/svg">
<path d="M35.5132 37.7167C36.2275 37.3736 37.0853 37.6773 37.4256 38.3917C37.7687 39.1061 37.465 39.9639 36.7506 40.3042C36.0082 40.6585 35.2628 40.9679 34.5231 41.221L34.3993 41.2576C33.9662 41.4038 33.5387 41.5332 33.1112 41.6485L30.9174 51.8379C37.2736 52.0348 42.9522 52.8026 47.1426 53.9361C52.2558 55.3199 55.3917 57.4207 55.3917 59.9464C55.3917 62.5452 52.0363 64.7024 46.6163 66.0918C41.7451 67.3405 35.0517 68.1112 27.6997 68.1112C20.3478 68.1112 13.654 67.3377 8.78317 66.0918C3.36352 64.7052 0.0078125 62.5452 0.0078125 59.9464C0.0078125 57.4208 3.14377 55.3199 8.25685 53.9361C12.4475 52.8027 18.1259 52.0321 24.4821 51.8379L22.2911 41.6485C17.9205 40.4813 14.1097 37.9388 11.3557 34.5132C8.46731 30.9188 6.73758 26.3541 6.73758 21.3926C6.73758 15.6129 9.086 10.3701 12.8772 6.57644L12.8857 6.568C16.6797 2.77677 21.9195 0.431152 27.699 0.431152C33.4784 0.431152 38.7214 2.77958 42.5151 6.57081L42.5235 6.57925C46.3148 10.3733 48.6604 15.6131 48.6604 21.3925C48.6604 23.5075 48.3398 25.5635 47.7464 27.5125C47.1332 29.5291 46.2276 31.4079 45.0857 33.101C44.6414 33.7591 43.747 33.9334 43.0889 33.4891C42.4308 33.0447 42.2564 32.1503 42.7008 31.4922C43.6936 30.0213 44.4754 28.4013 45.0014 26.68C45.5076 25.0206 45.7804 23.246 45.7804 21.3954C45.7804 16.3976 43.7582 11.8748 40.4901 8.60962C37.2191 5.33585 32.6968 3.31366 27.6986 3.31366C22.7003 3.31366 18.178 5.33585 14.9128 8.604C11.639 11.875 9.61684 16.3973 9.61684 21.3955C9.61684 25.6846 11.1047 29.6222 13.5937 32.7161C16.1333 35.8717 19.7137 38.1611 23.8112 39.0583C24.3484 39.1764 24.7928 39.5955 24.9137 40.1664L27.7009 53.112L30.474 40.2197C30.5725 39.66 31 39.1847 31.5878 39.0581C32.2515 38.9119 32.8816 38.7403 33.4694 38.5406L33.5847 38.4956C34.2681 38.2622 34.9093 37.9978 35.5084 37.7138L35.5132 37.7167ZM30.3044 54.6957L29.109 60.2504C28.9459 61.0266 28.1809 61.5216 27.4047 61.3585C26.8309 61.2376 26.4119 60.7876 26.2965 60.2504L25.1012 54.6957C18.7758 54.856 13.1312 55.607 9.00557 56.7207C5.21714 57.7473 2.89399 58.8976 2.89399 59.9523C2.89399 61.0689 5.4168 62.2726 9.49776 63.3189C14.1243 64.5029 20.5591 65.237 27.7058 65.237C34.8496 65.237 41.2843 64.503 45.9139 63.3189C49.9921 62.2755 52.5177 61.0689 52.5177 59.9523C52.5177 58.8976 50.1945 57.7473 46.4061 56.7207C42.283 55.607 36.6357 54.8589 30.3105 54.6957H30.3044ZM27.7028 8.96421C31.134 8.96421 34.2447 10.3564 36.4947 12.6064L36.5707 12.688C38.7757 14.9323 40.1369 18.0092 40.1369 21.3985C40.1369 24.8298 38.7447 27.9404 36.4947 30.1904C34.2447 32.4405 31.1369 33.8326 27.7028 33.8326C24.2716 33.8326 21.1609 32.4404 18.9109 30.1904C16.6608 27.9404 15.2687 24.8298 15.2687 21.3985C15.2687 17.9701 16.6609 14.8623 18.9109 12.6124C21.1609 10.3567 24.2715 8.96421 27.7028 8.96421ZM34.4584 14.6426C32.7316 12.9158 30.3409 11.847 27.7028 11.847C25.0647 11.847 22.674 12.9158 20.9472 14.6426C19.2204 16.3667 18.1516 18.7573 18.1516 21.3982C18.1516 24.0364 19.2204 26.427 20.9472 28.1539C22.674 29.8807 25.0619 30.9495 27.7028 30.9495C30.341 30.9495 32.7316 29.8807 34.4584 28.1539C36.1853 26.427 37.254 24.0363 37.254 21.3982C37.254 18.7911 36.2134 16.4286 34.5231 14.7045L34.4556 14.6426L34.4584 14.6426ZM39.594 35.0251C40.1959 34.5104 41.1044 34.5807 41.619 35.1826C42.1337 35.7845 42.0634 36.693 41.4615 37.2076L41.2815 37.3623C40.6797 37.877 39.7712 37.8067 39.2565 37.2048C38.7419 36.6029 38.8122 35.6945 39.414 35.1798L39.594 35.0251Z" fill="white"/>
</svg>
