<svg width="101" height="78" viewBox="0 0 101 78" fill="none" xmlns="http://www.w3.org/2000/svg">
<path fill-rule="evenodd" clip-rule="evenodd" d="M63.0696 32.5597C57.7209 26.1533 52.0046 20.0631 45.9496 14.3197C34.9896 3.6797 35.6296 4.47969 34.9896 4.39969C34.3496 4.31969 31.1496 6.39969 33.1496 8.95969L35.7096 11.9997C39.7096 16.9597 47.0696 26.3997 52.4296 33.7597C54.8296 37.0397 59.3096 40.7197 57.5496 41.7597C56.5191 44.3707 54.9984 46.7603 53.0696 48.7997C47.1681 56.027 40.7799 62.8428 33.9496 69.1997C30.7496 72.1597 29.4696 72.7197 30.1896 74.0797C30.9096 75.4397 31.6296 78.3997 34.1896 76.5597L35.5496 75.5997C38.1096 73.7597 43.5496 69.9197 48.7496 65.3597C53.9412 61.1387 58.7102 56.4232 62.9896 51.2797C65.3736 48.2527 66.7699 44.5664 66.9896 40.7197C66.4582 37.691 65.1018 34.8675 63.0696 32.5597Z" fill="#FFC973"/>
<path fill-rule="evenodd" clip-rule="evenodd" d="M90.9963 24.8802C82.2763 14.1602 68.6763 0.880234 68.6763 0.880234C68.4458 0.648029 68.1716 0.463738 67.8695 0.337975C67.5675 0.212211 67.2435 0.147461 66.9163 0.147461C66.5891 0.147461 66.2651 0.212211 65.9631 0.337975C65.661 0.463738 65.3868 0.648029 65.1563 0.880234C64.6824 1.35947 64.4166 2.00626 64.4166 2.68024C64.4166 3.35421 64.6824 4.001 65.1563 4.48024C65.1563 4.48024 72.1163 13.6002 78.8363 23.0402C81.6363 26.9602 84.2763 31.0402 86.8363 34.2402C88.2018 36.0075 89.3814 37.9109 90.3563 39.9202C90.9163 39.9202 89.9563 41.1202 89.5563 41.9202C88.5355 43.8188 87.4139 45.6614 86.1963 47.4402C80.9888 54.9115 75.3805 62.0953 69.3963 68.9602C68.1963 70.4002 67.2363 71.3602 66.8363 71.8402C66.4363 72.3202 59.5563 87.8402 83.7163 63.8402C89.0353 58.6933 93.8074 53.0097 97.9563 46.8802C99.4446 44.4828 100.196 41.7009 100.116 38.8802C98.0584 33.6428 94.9553 28.8793 90.9963 24.8802Z" fill="#FFC973"/>
<path fill-rule="evenodd" clip-rule="evenodd" d="M22.5804 27.4684C15.4954 18.7584 4.44535 7.96842 4.44535 7.96842C4.25805 7.77976 4.03528 7.63002 3.78985 7.52784C3.54443 7.42566 3.2812 7.37305 3.01535 7.37305C2.7495 7.37305 2.48629 7.42566 2.24086 7.52784C1.99544 7.63002 1.77265 7.77976 1.58536 7.96842C1.20032 8.35781 0.984375 8.88332 0.984375 9.43093C0.984375 9.97853 1.20032 10.504 1.58536 10.8934C1.58536 10.8934 7.24035 18.3034 12.7004 25.9734C14.9754 29.1584 17.1204 32.4734 19.2004 35.0734C20.3098 36.5093 21.2682 38.0559 22.0604 39.6884C22.5154 39.6884 21.7354 40.6634 21.4104 41.3134C20.5809 42.856 19.6696 44.3531 18.6804 45.7984C14.4492 51.8688 9.89256 57.7057 5.03035 63.2834C4.05535 64.4534 3.27535 65.2334 2.95035 65.6234C2.62535 66.0134 -2.96464 78.6234 16.6654 59.1234C20.9871 54.9415 24.8644 50.3236 28.2354 45.3434C29.4446 43.3955 30.0549 41.1353 29.9903 38.8434C28.3183 34.588 25.7971 30.7177 22.5804 27.4684Z" fill="#FFC973"/>
</svg>
