<svg width="63" height="64" viewBox="0 0 63 64" fill="none" xmlns="http://www.w3.org/2000/svg">
<path d="M58.9628 63.3591C51.7406 63.3591 44.605 61.7853 37.5562 58.6375C30.5073 55.4898 24.0939 51.0259 18.3162 45.2458C12.5384 39.4657 8.07562 33.0524 4.92789 26.0058C1.78015 18.9592 0.205131 11.8237 0.20282 4.59914C0.20282 3.55914 0.549486 2.69247 1.24282 1.99914C1.93615 1.3058 2.80282 0.959137 3.84282 0.959137H17.8828C18.6917 0.959137 19.4139 1.23416 20.0495 1.7842C20.685 2.33425 21.0606 2.98367 21.1762 3.73247L23.4295 15.8658C23.545 16.7902 23.5162 17.5702 23.3428 18.2058C23.1695 18.8414 22.8517 19.3902 22.3895 19.8525L13.9828 28.3458C15.1384 30.4836 16.51 32.5486 18.0978 34.5407C19.6855 36.5329 21.4338 38.4546 23.3428 40.3058C25.1339 42.0969 27.0117 43.7586 28.9762 45.2909C30.9406 46.8231 33.0206 48.2237 35.2162 49.4925L43.3628 41.3458C43.8828 40.8258 44.5623 40.4364 45.4012 40.1775C46.2402 39.9187 47.0629 39.8459 47.8695 39.9591L59.8295 42.3858C60.6384 42.6169 61.3028 43.0364 61.8228 43.6442C62.3428 44.252 62.6028 44.9303 62.6028 45.6791V59.7191C62.6028 60.7591 62.2562 61.6258 61.5628 62.3191C60.8695 63.0125 60.0028 63.3591 58.9628 63.3591Z" fill="white"/>
</svg>
