<svg width="71" height="69" viewBox="0 0 71 69" fill="none" xmlns="http://www.w3.org/2000/svg">
<path d="M54.1824 0.431152C53.9437 0.431171 53.7148 0.526094 53.5461 0.695042C53.3773 0.86399 53.2825 1.09313 53.2824 1.33206V18.646C53.2825 18.8849 53.3773 19.1141 53.5461 19.283C53.7148 19.452 53.9437 19.5469 54.1824 19.5469H57.009V36.4882H42.4405C42.2018 36.4882 41.9729 36.5832 41.8042 36.7521C41.6354 36.9211 41.5406 37.1502 41.5405 37.3891V45.196L38.6887 46.6374C38.4836 46.7412 38.3259 46.9196 38.2479 47.1361C38.17 47.3526 38.1778 47.5906 38.2696 47.8016L46.7944 67.4103C46.8643 67.5713 46.9797 67.7084 47.1263 67.8046C47.273 67.9009 47.4445 67.9522 47.6199 67.9522H69.3322C69.5709 67.9522 69.7998 67.8573 69.9686 67.6883C70.1374 67.5194 70.2322 67.2903 70.2322 67.0513V37.3892C70.2322 37.1503 70.1374 36.9212 69.9686 36.7522C69.7998 36.5833 69.5709 36.4883 69.3322 36.4883H61.6217V19.547H64.4483C64.687 19.547 64.9159 19.4521 65.0847 19.2831C65.2535 19.1142 65.3483 18.885 65.3483 18.6461V1.33216C65.3483 1.09324 65.2535 0.864098 65.0847 0.69515C64.9159 0.526202 64.687 0.43128 64.4483 0.43126L54.1824 0.431152ZM55.0824 2.23296H63.5482V17.7451H55.0824V2.23296ZM59.3152 3.85034C58.0413 3.85034 56.9893 4.90331 56.9893 6.17863C56.9893 7.45395 58.0412 8.50693 59.3152 8.50693C60.5892 8.50693 61.6412 7.45395 61.6412 6.17863C61.6412 4.90331 60.5893 3.85034 59.3152 3.85034ZM17.9361 5.33964C16.9265 5.33964 16.0517 6.15867 16.0517 7.18649V9.74701L9.71099 11.1054C9.00813 11.1855 8.36099 11.7423 8.36099 12.5328C8.36099 12.5333 8.36099 12.5338 8.36099 12.5342L8.37646 21.4042L6.60598 22.2417C6.59461 22.2471 6.58336 22.2527 6.57223 22.2586C6.47512 22.3096 6.27966 22.3731 6.01395 22.5331C5.74824 22.6931 5.32587 23.1369 5.32629 23.6761L5.31223 34.3911C5.31223 34.3916 5.31223 34.392 5.31223 34.3925C5.31273 34.9243 5.70066 35.3588 5.97739 35.5355C6.25411 35.7122 6.48465 35.7829 6.63832 35.8452C6.6754 35.8604 6.71346 35.8731 6.75223 35.8832L22.2056 39.864C22.3527 39.9019 22.507 39.9019 22.6542 39.864L38.109 35.8832C38.1385 35.8753 38.1676 35.8659 38.1962 35.855C38.418 35.7729 38.6613 35.6788 38.919 35.4947C39.1767 35.3105 39.4836 34.9656 39.542 34.5051C39.5466 34.4682 39.5489 34.4311 39.549 34.3939L39.5645 23.676C39.5645 23.6751 39.5645 23.6742 39.5645 23.6732C39.5639 23.154 39.1395 22.6931 38.8782 22.5387C38.6169 22.3842 38.4425 22.3277 38.3424 22.2712C38.3245 22.2612 38.3062 22.2518 38.2876 22.2431L36.5311 21.4055L36.5171 12.532C36.5165 12.0951 36.258 11.6806 35.9869 11.4677C35.7158 11.2548 35.4427 11.1655 35.184 11.1102L28.8277 9.75041V7.18708C28.8278 6.15926 27.9516 5.34023 26.942 5.34023L17.9361 5.33964ZM59.3152 5.65214C59.6164 5.65214 59.8412 5.8771 59.8412 6.1786C59.8412 6.4801 59.6164 6.70507 59.3152 6.70507C59.0141 6.70507 58.7893 6.4801 58.7893 6.1786C58.7893 5.87711 59.014 5.65214 59.3152 5.65214ZM17.9361 7.14144H26.9419C27.0237 7.14144 27.0277 7.16602 27.0277 7.18649V10.2735C27.0277 10.2476 27.03 10.2494 27.022 10.2876C26.9729 10.5211 27.0183 10.7646 27.1482 10.9646C27.2782 11.1646 27.4822 11.3049 27.7153 11.3546L34.717 12.8523L34.7325 21.9752C34.7327 22.1453 34.7811 22.3119 34.8719 22.4556C34.9627 22.5993 35.0924 22.7144 35.2458 22.7875L37.5126 23.87L37.4592 23.8405C37.6213 23.9319 37.6727 23.9496 37.7644 23.9911L37.7489 34.0855C37.703 34.1082 37.6756 34.123 37.5984 34.1531L22.4309 38.0608L7.26554 34.1545C7.18846 34.1227 7.16248 34.1104 7.11226 34.0884L7.12632 23.9896C7.2106 23.9518 7.2573 23.9333 7.40756 23.8545L7.37522 23.8714L9.6618 22.7888C9.81639 22.7158 9.94702 22.6003 10.0384 22.4557C10.1298 22.3111 10.1782 22.1435 10.1779 21.9724L10.161 12.8524L17.1614 11.3518C17.3946 11.3018 17.5984 11.1612 17.7281 10.9609C17.8578 10.7606 17.9028 10.5169 17.8532 10.2834C17.8505 10.2704 17.8518 10.2697 17.8518 10.2736V7.18657C17.8518 7.16609 17.8542 7.14144 17.9361 7.14144ZM59.3152 10.4129C58.0413 10.4129 56.9893 11.4659 56.9893 12.7412C56.9893 14.0164 58.0412 15.0695 59.3152 15.0695C60.5892 15.0695 61.6412 14.0165 61.6412 12.7412C61.6412 11.4659 60.5893 10.4129 59.3152 10.4129ZM20.4691 11.3349C20.39 11.3391 20.3092 11.3507 20.2286 11.3701L12.0473 13.3338C11.2432 13.5269 10.4385 14.2992 10.4385 15.3228V19.8991C10.4385 20.4109 10.5887 20.8826 10.8983 21.2828C11.2079 21.6832 11.8231 22.0415 12.4677 21.8867L20.6491 19.9216C21.4532 19.7285 22.2578 18.9576 22.2578 17.934V13.3577C22.2578 12.8459 22.1076 12.3743 21.798 11.974C21.5271 11.6237 21.0229 11.3053 20.4691 11.3349ZM24.4052 11.3349C23.8514 11.3053 23.3472 11.6237 23.0763 11.974C22.7667 12.3743 22.6164 12.8459 22.6164 13.3577V17.934C22.6164 18.9576 23.4225 19.7285 24.2266 19.9216L32.4079 21.8867C33.0525 22.0415 33.6677 21.6832 33.9773 21.2828C34.2869 20.8825 34.4372 20.4109 34.4372 19.8991V15.3228C34.4372 14.2992 33.6311 13.5269 32.827 13.3338L24.6457 11.3701C24.5651 11.3507 24.4843 11.3391 24.4052 11.3349ZM59.3151 12.2147C59.6163 12.2147 59.841 12.4397 59.841 12.7412C59.841 13.0426 59.6163 13.2676 59.3151 13.2676C59.0139 13.2676 58.7892 13.0426 58.7892 12.7412C58.7892 12.4397 59.0139 12.2147 59.3151 12.2147ZM24.47 13.1789L32.408 15.0863C32.6074 15.1342 32.6372 15.1141 32.6372 15.3228V19.8991C32.6372 19.9658 32.6074 20.0182 32.5838 20.0779L24.6458 18.1705C24.4463 18.1226 24.4165 18.1427 24.4165 17.934V13.3577C24.4165 13.2911 24.4463 13.2386 24.47 13.1789ZM20.4059 13.1803C20.4294 13.2399 20.458 13.2917 20.458 13.3577V17.934C20.458 18.1427 20.4282 18.1226 20.2288 18.1705L12.2908 20.0765C12.2673 20.0169 12.2387 19.9651 12.2387 19.8991V15.3228C12.2387 15.1141 12.2685 15.1342 12.4679 15.0863L20.4059 13.1803ZM58.8093 19.5824H59.8218V36.4884H58.8093V19.5824ZM22.4608 22.0486C19.1867 22.0486 16.5138 24.7242 16.5138 28.0017C16.5138 31.2791 19.1867 33.9561 22.4608 33.9561C25.735 33.9561 28.4092 31.2791 28.4092 28.0017C28.4092 24.7242 25.735 22.0486 22.4608 22.0486ZM22.4608 23.8504C24.7622 23.8504 26.6092 25.698 26.6092 28.0017C26.6092 30.3053 24.7622 32.1543 22.4608 32.1543C20.1595 32.1543 18.3138 30.3053 18.3138 28.0017C18.3138 25.698 20.1595 23.8504 22.4608 23.8504ZM10.2043 28.735C8.93029 28.735 7.8783 29.788 7.8783 31.0633C7.8783 32.3385 8.93022 33.3916 10.2043 33.3916C11.4783 33.3916 12.5302 32.3386 12.5302 31.0633C12.5302 29.788 11.4783 28.735 10.2043 28.735ZM34.6727 28.735C33.3988 28.735 32.3468 29.788 32.3468 31.0633C32.3468 32.3385 33.3987 33.3916 34.6727 33.3916C35.9468 33.3916 36.9987 32.3386 36.9987 31.0633C36.9987 29.788 35.9468 28.735 34.6727 28.735ZM10.2043 30.5368C10.5055 30.5368 10.7302 30.7618 10.7302 31.0633C10.7302 31.3648 10.5055 31.5897 10.2043 31.5897C9.90306 31.5897 9.67832 31.3648 9.67832 31.0633C9.67832 30.7618 9.90306 30.5368 10.2043 30.5368ZM34.6727 30.5368C34.9739 30.5368 35.1987 30.7618 35.1987 31.0633C35.1987 31.3648 34.9739 31.5897 34.6727 31.5897C34.3715 31.5897 34.1468 31.3648 34.1468 31.0633C34.1468 30.7618 34.3715 30.5368 34.6727 30.5368ZM37.3531 36.7192C37.2385 36.7104 37.1411 36.7214 37.0718 36.7319C36.9332 36.753 36.844 36.7807 36.7386 36.8093L22.4106 40.6945L8.00624 36.8346C7.90226 36.8068 7.81853 36.7803 7.6828 36.7586C7.54707 36.7369 7.28049 36.703 6.98108 36.8712C6.68168 37.0395 6.5698 37.2958 6.52405 37.409C6.47829 37.5221 6.46557 37.5762 6.44389 37.6384L4.62279 42.858C4.52134 43.149 4.56071 43.5601 4.71139 43.8195C4.86207 44.0788 5.04625 44.206 5.19655 44.2981C5.49713 44.4822 5.74709 44.5509 5.92079 44.6162L22.0999 50.7057C22.3043 50.7828 22.5297 50.7828 22.7341 50.7057L38.8974 44.605C39.2225 44.527 39.5013 44.466 39.8284 44.2193C40.0032 44.0874 40.1985 43.8564 40.2742 43.5703C40.3499 43.2843 40.3011 43.0135 40.2306 42.8201L38.3251 37.6004V37.599C38.2989 37.5272 38.2809 37.4592 38.2224 37.3358C38.1637 37.2118 38.021 36.9693 37.7401 36.8276C37.5996 36.7568 37.4676 36.7281 37.3531 36.7192ZM43.3409 38.2902H68.4329V66.1505H48.2095L40.26 47.8636L42.8476 46.5544C42.9962 46.4791 43.1211 46.364 43.2082 46.2218C43.2954 46.0796 43.3414 45.916 43.3411 45.7493L43.3409 38.2902ZM36.7962 38.6604L38.3389 42.8919C38.3266 42.8958 38.3144 42.9 38.3023 42.9045L22.4148 48.8998L6.55539 42.9299C6.55492 42.9299 6.55445 42.9299 6.55398 42.9299C6.53201 42.9216 6.53301 42.9211 6.51179 42.913L7.98275 38.6928L22.179 42.4991C22.3325 42.54 22.494 42.5395 22.6473 42.4977L36.7962 38.6604ZM35.269 46.8882C35.0025 46.8666 34.7387 46.9143 34.4886 47.0191L33.3101 47.5132C32.9758 47.6534 32.6963 47.884 32.5128 48.203C32.3294 48.5219 32.2493 48.9744 32.4242 49.3924L33.5886 52.174L11.2895 52.1782L12.4552 49.3925C12.6301 48.9745 12.5501 48.5219 12.3666 48.203C12.1832 47.8841 11.9037 47.6534 11.5693 47.5132L10.3894 47.0191C10.2246 46.9501 10.0519 46.9051 9.87335 46.8896C9.34592 46.844 8.69277 47.0779 8.43054 47.7047L0.942542 65.6032C0.767884 66.0206 0.848661 66.4753 1.03254 66.794C1.21642 67.1128 1.4951 67.3412 1.8285 67.4809L3.00837 67.975C3.34181 68.1148 3.70015 68.1531 4.05604 68.0609C4.41193 67.9687 4.79231 67.7076 4.96727 67.2895L5.84481 65.1949L39.0339 65.1907L39.9128 67.2895C40.0878 67.7077 40.4682 67.9687 40.8241 68.0609C41.1799 68.1531 41.5383 68.1149 41.8717 67.9751L43.0502 67.481C43.3831 67.3414 43.6617 67.1136 43.8461 66.7954C44.0306 66.4773 44.1127 66.0219 43.9375 65.6031L36.4481 47.7047C36.2731 47.2866 35.8927 47.0255 35.5369 46.9333C35.4479 46.9103 35.3579 46.8954 35.269 46.8882ZM9.93153 48.7786L10.6389 49.0757L9.10887 52.7314C9.05169 52.8683 9.02916 53.0172 9.04328 53.1648C9.0574 53.3125 9.10774 53.4545 9.18982 53.578C9.27191 53.7015 9.3832 53.8028 9.51381 53.873C9.64442 53.9431 9.79031 53.9799 9.93852 53.98L34.9405 53.9758C35.0887 53.9756 35.2346 53.9389 35.3652 53.8687C35.4959 53.7986 35.6071 53.6973 35.6892 53.5738C35.7713 53.4502 35.8216 53.3083 35.8358 53.1606C35.8499 53.0129 35.8274 52.864 35.7702 52.7272L34.2416 49.0743L34.9476 48.7786L42.1194 65.9182L41.4135 66.2152L40.4629 63.9418C40.3944 63.778 40.2791 63.6381 40.1315 63.5397C39.9839 63.4413 39.8106 63.3887 39.6332 63.3886L5.246 63.3928C5.06864 63.3929 4.89528 63.4455 4.74767 63.5439C4.60006 63.6424 4.4848 63.7823 4.41634 63.946L3.46709 66.2152L2.76115 65.9195L9.93153 48.7786ZM36.015 54.7401L8.86449 54.7443C8.68713 54.7445 8.51377 54.797 8.36616 54.8955C8.21855 54.9939 8.10329 55.1338 8.03483 55.2976L5.48949 61.3801C5.4323 61.517 5.40977 61.6659 5.4239 61.8136C5.43802 61.9612 5.48836 62.1031 5.57044 62.2267C5.65253 62.3502 5.76382 62.4515 5.89443 62.5217C6.02504 62.5918 6.17093 62.6286 6.31914 62.6287L38.5586 62.6245C38.7068 62.6243 38.8527 62.5876 38.9833 62.5174C39.1139 62.4473 39.2252 62.346 39.3073 62.2225C39.3894 62.0989 39.4397 61.957 39.4538 61.8093C39.468 61.6616 39.4454 61.5127 39.3882 61.3759L36.8443 55.2933C36.7759 55.1295 36.6606 54.9897 36.513 54.8912C36.3654 54.7928 36.1923 54.7402 36.015 54.7401ZM35.4173 56.5419L37.2074 60.8227L7.67232 60.8269L9.4639 56.5461L35.4173 56.5419Z" fill="white"/>
</svg>
