<svg width="82" height="73" viewBox="0 0 82 73" fill="none" xmlns="http://www.w3.org/2000/svg">
<path fill-rule="evenodd" clip-rule="evenodd" d="M81.0458 30.2347C80.4858 22.3247 67.8158 23.2347 59.2758 22.2547C58.252 21.9426 57.1944 21.7546 56.1258 21.6947C53.2959 15.3562 49.597 9.44275 45.1358 4.1247C39.9558 -2.8753 35.1958 -0.355303 31.4858 7.2047L25.7458 19.8047C25.7458 20.4347 24.3458 21.4847 24.0658 22.3947C23.2045 22.3104 22.337 22.3104 21.4758 22.3947C15.4767 22.2105 9.48951 23.0388 3.76577 24.8447C-0.0842312 26.9447 0.195767 31.8447 3.41577 35.1347C6.64475 37.851 10.1665 40.1988 13.9158 42.1347C16.3546 43.8591 19.1164 45.0733 22.0358 45.7047C22.6484 45.7047 23.236 45.4613 23.6692 45.0281C24.1024 44.5949 24.3458 44.0074 24.3458 43.3947C24.3458 42.7821 24.1024 42.1945 23.6692 41.7613C23.236 41.3281 22.6484 41.0847 22.0358 41.0847L16.7158 38.2147C12.3058 34.9947 9.71577 34.6447 6.21577 29.6747C6.21577 29.6747 21.8958 28.7647 24.9758 28.6947C29.7358 28.6947 29.5258 24.7047 38.9758 7.2747C41.67 10.7096 44.0369 14.3889 46.0458 18.2647C47.4452 21.6682 49.1312 24.9467 51.0858 28.0647C53.1858 30.3047 56.7558 29.5347 58.0858 29.7447C62.7976 29.9299 67.4832 30.539 72.0858 31.5647C67.455 34.9283 62.452 37.7469 57.1758 39.9647C56.4257 40.5112 55.8575 41.2709 55.5454 42.1449C55.2332 43.0189 55.1916 43.9667 55.4258 44.8647C57.2936 50.6862 58.5143 56.6958 59.0658 62.7847C52.5024 59.6546 46.6255 55.2529 41.7758 49.8347C41.1602 49.2277 40.3303 48.8874 39.4658 48.8874C38.6012 48.8874 37.7714 49.2277 37.1558 49.8347C32.6758 53.2647 24.4158 67.6147 17.8358 67.2647C18.3258 66.2147 17.1358 65.7947 18.9558 61.0347C20.7758 56.2747 24.8358 51.0247 21.6158 49.8347C21.1143 49.653 20.5615 49.676 20.0768 49.8987C19.5921 50.1214 19.2146 50.5259 19.0258 51.0247C17.6958 54.3847 16.1558 56.6247 14.9658 59.4247C13.6091 62.3869 12.939 65.6173 13.0058 68.8747C14.0558 73.0047 20.0058 72.5847 23.9258 70.3447C28.5007 67.4311 32.5481 63.7623 35.8958 59.4947C37.2671 58.5532 38.5765 57.5244 39.8158 56.4147C44.1494 61.1492 49.1484 65.2286 54.6558 68.5247C58.4358 70.6247 62.2158 73.2147 64.9458 70.3447C67.6758 67.4747 66.1358 65.2347 66.2058 63.3447C66.0473 57.1839 65.1064 51.0682 63.4058 45.1447C69.4958 42.4147 81.5358 36.8147 81.0458 30.2347Z" fill="#FFC973"/>
</svg>
