<svg width="111" height="114" viewBox="0 0 111 114" fill="none" xmlns="http://www.w3.org/2000/svg">
<path d="M92.38 17.3502C92.38 18.0184 92.3304 18.6745 92.2347 19.3149C92.8509 19.2156 93.4823 19.164 94.1253 19.164C100.88 19.164 106.357 24.8522 106.357 31.8689C106.357 38.8857 100.88 44.5739 94.1253 44.5739C90.4923 44.5739 87.2293 42.9286 84.9891 40.3163L39.354 87.7189C41.8699 90.0459 43.4546 93.436 43.4546 97.2106C43.4546 104.227 37.9785 109.915 31.2234 109.915C24.4683 109.915 18.9922 104.227 18.9922 97.2106C18.9922 96.5416 19.042 95.8848 19.1379 95.2438C18.5209 95.3434 17.8887 95.3951 17.2449 95.3951C10.4898 95.3951 5.01367 89.7069 5.01367 82.6901C5.01367 75.6734 10.4898 69.9852 17.2449 69.9852C20.8779 69.9852 24.141 71.6305 26.3812 74.2429L72.0164 26.8402C69.5015 24.5132 67.9176 21.1238 67.9176 17.3502C67.9176 10.3335 73.3937 4.64526 80.1488 4.64526C86.9039 4.64526 92.38 10.3335 92.38 17.3502Z" stroke="#FFC973" stroke-width="8.16746" stroke-linecap="round" stroke-linejoin="round"/>
</svg>
