<svg width="63" height="64" viewBox="0 0 63 64" fill="none" xmlns="http://www.w3.org/2000/svg">
<path d="M53.9093 10.0385C51.0341 7.1497 47.6098 4.85919 43.836 3.30043C40.0622 1.74167 36.0143 0.945836 31.9282 0.959305C14.8074 0.959305 0.853668 14.8433 0.853668 31.8784C0.853668 37.3384 2.29608 42.6424 4.99276 47.3224L0.602814 63.3591L17.0651 59.0536C21.6119 61.5183 26.723 62.8287 31.9282 62.8287C49.049 62.8287 63.0028 48.9448 63.0028 31.9096C63.0028 23.6416 59.7731 15.8729 53.9093 10.0385ZM31.9282 57.5872C27.2874 57.5872 22.7407 56.3392 18.7584 53.9992L17.8177 53.4376L8.03437 55.996L10.637 46.5112L10.0098 45.544C7.4309 41.4476 6.06179 36.7121 6.05889 31.8784C6.05889 17.7137 17.6609 6.16969 31.8969 6.16969C38.7954 6.16969 45.2862 8.85288 50.1465 13.7201C52.5535 16.1033 54.461 18.9384 55.7582 22.0608C57.0555 25.1833 57.7167 28.5309 57.7035 31.9096C57.7662 46.0744 46.1642 57.5872 31.9282 57.5872ZM46.1015 38.368C45.3176 37.9936 41.4921 36.1216 40.8022 35.8408C40.081 35.5912 39.5793 35.4664 39.0462 36.2152C38.5132 36.9952 37.0394 38.7424 36.6004 39.2416C36.1614 39.772 35.6911 39.8344 34.9071 39.4288C34.1232 39.0544 31.6147 38.212 28.6671 35.5912C26.3467 33.532 24.8102 31.0048 24.3399 30.2248C23.9009 29.4448 24.2772 29.0392 24.6848 28.6336C25.0297 28.2904 25.4687 27.7288 25.845 27.292C26.2213 26.8552 26.3781 26.512 26.6289 26.0128C26.8798 25.4824 26.7544 25.0456 26.5662 24.6712C26.3781 24.2968 24.8102 20.4905 24.1831 18.9305C23.556 17.4329 22.8975 17.6201 22.4271 17.5889H20.922C20.3889 17.5889 19.5737 17.7761 18.8525 18.5561C18.1626 19.3361 16.1558 21.2081 16.1558 25.0144C16.1558 28.8208 18.9465 32.5024 19.3228 33.0016C19.6991 33.532 24.8102 41.332 32.5867 44.6704C34.4368 45.4816 35.8792 45.9496 37.008 46.2928C38.8581 46.8856 40.5514 46.792 41.8997 46.6048C43.4048 46.3864 46.5091 44.7328 47.1363 42.9232C47.7948 41.1136 47.7948 39.5848 47.5753 39.2416C47.3558 38.8984 46.8854 38.7424 46.1015 38.368Z" fill="white"/>
</svg>
