<svg width="107" height="102" viewBox="0 0 107 102" fill="none" xmlns="http://www.w3.org/2000/svg">
<path d="M34.7786 66.3983C32.8792 67.6146 32.3255 70.1402 33.5417 72.0396C34.7579 73.9389 37.2836 74.4927 39.183 73.2765L34.7786 66.3983ZM72.8934 73.2765C74.7928 74.4927 77.3184 73.9389 78.5347 72.0396C79.7509 70.1402 79.1971 67.6146 77.2978 66.3983L72.8934 73.2765ZM83.5537 51.3388C85.3656 52.6818 87.9232 52.3016 89.2662 50.4896C90.6091 48.6777 90.229 46.1201 88.417 44.7771L83.5537 51.3388ZM18.214 44.7771C16.4021 46.1201 16.0219 48.6777 17.3649 50.4896C18.7078 52.3016 21.2654 52.6818 23.0774 51.3388L18.214 44.7771ZM1.87873 17.5542C0.0668424 18.8972 -0.313227 21.4548 1.02983 23.2667C2.37288 25.0786 4.93047 25.4587 6.74236 24.1156L1.87873 17.5542ZM99.8882 24.1156C101.7 25.4587 104.258 25.0786 105.601 23.2667C106.944 21.4548 106.564 18.8972 104.752 17.5542L99.8882 24.1156ZM54.6783 94.3389C54.6783 93.5868 55.288 92.9772 56.04 92.9772V101.145C59.7987 101.145 62.8458 98.0976 62.8458 94.3389H54.6783ZM56.04 92.9772C56.7921 92.9772 57.4017 93.5868 57.4017 94.3389H49.2343C49.2343 98.0976 52.2813 101.145 56.04 101.145V92.9772ZM57.4017 94.3389C57.4017 95.0909 56.7921 95.7006 56.04 95.7006V87.5332C52.2813 87.5332 49.2343 90.5802 49.2343 94.3389H57.4017ZM56.04 95.7006C55.288 95.7006 54.6783 95.0909 54.6783 94.3389H62.8458C62.8458 90.5802 59.7987 87.5332 56.04 87.5332V95.7006ZM39.183 73.2765C43.8664 70.2775 49.6871 68.4762 56.0382 68.4762V60.3087C48.1428 60.3087 40.7909 62.5484 34.7786 66.3983L39.183 73.2765ZM56.0382 68.4762C62.3892 68.4762 68.2099 70.2775 72.8934 73.2765L77.2978 66.3983C71.2854 62.5484 63.9335 60.3087 56.0382 60.3087V68.4762ZM53.3155 41.2518C64.5386 41.2518 74.9564 44.9667 83.5537 51.3388L88.417 44.7771C78.491 37.4202 66.3849 33.0843 53.3155 33.0843V41.2518ZM23.0774 51.3388C31.6746 44.9667 42.0924 41.2518 53.3155 41.2518V33.0843C40.2461 33.0843 28.14 37.4202 18.214 44.7771L23.0774 51.3388ZM6.74236 24.1156C19.9687 14.3117 36.0178 8.58373 53.3153 8.58373V0.416271C34.1716 0.416271 16.434 6.76517 1.87873 17.5542L6.74236 24.1156ZM53.3153 8.58373C70.6127 8.58373 86.6619 14.3117 99.8882 24.1156L104.752 17.5542C90.1965 6.76516 72.4589 0.416271 53.3153 0.416271V8.58373Z" fill="#FFC973"/>
</svg>
